<?xml version="1.0" encoding="utf-8"?>
<!-- Generator: Adobe Illustrator 19.1.0, SVG Export Plug-In . SVG Version: 6.00 Build 0)  -->
<svg version="1.1" id="Layer_1" xmlns="http://www.w3.org/2000/svg" xmlns:xlink="http://www.w3.org/1999/xlink" x="0px" y="0px"
	 viewBox="0 0 75 34.5" style="enable-background:new 0 0 75 34.5;" xml:space="preserve">
<style type="text/css">
	.st0{fill:none;}
	.st1{fill:#F3B541;}
</style>
<rect class="st0" width="75" height="34.5"/>
<g>
	<path class="st1" d="M12.9,6.2c0,0,0.1,0.1,0.1,0.1c0,0,0,0.1,0,0.1c-0.2,0.2-0.2,0.4-0.1,0.6c0,0.1,0,0.2-0.1,0.3c0,0,0,0-0.1,0.1
		c0,0,0,0.1-0.1,0.1c0,0,0,0.1-0.1,0.1c0,0,0,0.1-0.1,0.1c0,0,0,0-0.1,0.1s0,0-0.1,0.1C12.3,8,12.2,8.1,12,8c-0.2,0-0.4,0-0.5-0.1
		c-0.2,0-0.4,0-0.5-0.1c-0.5-0.1-1.1-0.1-1.6-0.1c-0.2,0-0.4,0-0.6,0c-0.2,0-0.4,0-0.6,0h0c-0.2,0-0.3,0-0.4,0.1
		C7.6,7.9,7.6,8,7.5,8.2v0.1c0,0,0,0,0,0c0,0.1,0,0.2-0.1,0.3c0,0.1,0,0.2-0.1,0.3c0,0.1,0,0.3,0,0.4c0.1,0.1,0.1,0.2,0.3,0.3
		c0.1,0,0.2,0,0.3,0s0.2,0,0.3,0c0.2,0,0.4,0,0.6,0s0.4,0,0.6,0c0.1,0,0.2,0,0.2,0c0,0,0,0.1,0,0.2c0,0,0,0.1,0,0.1c0,0,0,0.1,0,0.1
		c0,0.1-0.1,0.2-0.1,0.3c-0.1,0.1-0.1,0.2-0.2,0.3c-0.1,0.1-0.1,0.1-0.1,0.2c0,0.1-0.1,0.1-0.1,0.2c0,0.1-0.1,0.2-0.3,0.2
		c-0.1,0-0.3,0-0.4,0s-0.2,0-0.4,0c-0.1,0-0.2,0-0.3,0c-0.1,0-0.1,0.1-0.1,0.3c0,0.1,0,0.2,0,0.3s0,0.2,0,0.3c0,0,0,0,0,0.1
		c0,0,0,0-0.1,0c-0.1,0-0.2,0-0.2,0.1c-0.1,0.1-0.1,0.1-0.1,0.2c-0.1,0.1,0,0.2,0.1,0.4c0.1,0.1,0.1,0.2,0.2,0.3
		c0.1,0.1,0.2,0.2,0.3,0.2c0.1,0,0.3,0,0.4-0.1c0.1,0,0.3-0.1,0.4-0.1c0,0,0,0,0.1,0C8.8,13,9,12.9,9.2,12.9c0.2,0,0.4,0,0.6,0
		c0.1,0,0.2,0,0.4-0.1c0.1,0,0.2-0.1,0.3-0.1c0.1,0,0.2,0,0.2-0.1c0.1,0,0.1-0.1,0.2-0.1c0,0,0.1,0,0.1,0s0.1,0,0.1,0
		c0,0,0.1,0.1,0.1,0.1c0,0,0.1,0,0.1,0.1c0,0,0.1,0,0.1,0.1c0,0,0,0.1,0,0.1c0,0.2-0.1,0.4-0.2,0.5c0,0,0,0-0.1,0c0,0,0,0-0.1,0
		c-0.1,0.1-0.1,0.1-0.2,0.2c0,0.1-0.1,0.2-0.1,0.2c0,0.2,0,0.2-0.2,0.2c-0.1,0-0.2,0-0.3,0s-0.2,0.1-0.3,0.1c-0.2,0-0.3,0-0.4,0.1
		c-0.1,0-0.3,0.1-0.4,0.2c-0.2,0.1-0.3,0-0.4-0.1c0,0-0.1-0.1-0.1-0.1s-0.1,0-0.1,0c-0.1,0-0.1,0-0.2,0c-0.1,0-0.1,0-0.2,0.1
		c-0.1,0-0.1,0.1-0.2,0.1s-0.1,0.1-0.2,0.1c-0.1,0-0.1,0-0.2,0c-0.1,0-0.1,0-0.1,0.1c-0.1,0.1-0.3,0.1-0.5,0.1c-0.2,0-0.3,0-0.5,0
		c-0.2,0-0.3-0.1-0.5-0.1c-0.1,0-0.1-0.1-0.2-0.1c-0.1,0-0.1,0-0.2-0.1c-0.2,0-0.3,0-0.5,0.1c-0.1,0.1-0.1,0.1-0.2,0.1
		c0,0-0.1-0.1-0.1-0.2c0-0.1-0.1-0.2-0.1-0.3c0-0.1-0.1-0.2-0.1-0.3c0-0.1,0-0.2,0-0.3c0.1-0.2,0.1-0.3,0.2-0.5s0.1-0.3,0.1-0.5
		c0-0.2,0-0.4,0-0.6c0-0.2,0-0.4,0-0.6c0-0.2,0-0.4-0.1-0.6c0,0,0-0.1,0-0.2s0-0.1,0-0.2c0.1-0.2,0.2-0.5,0.2-0.7
		c0.1-0.2,0.1-0.5,0.1-0.7c0,0,0-0.1,0-0.1c0,0,0-0.1,0-0.1c0-0.1,0-0.2,0-0.2c0-0.1,0-0.1,0-0.2V8.1c0-0.2,0-0.3,0-0.5s0-0.3,0-0.5
		c0-0.2-0.1-0.3-0.3-0.4c-0.1,0-0.1-0.1-0.1-0.1c0-0.1,0-0.1,0.1-0.2c0.1-0.1,0.2-0.2,0.3-0.3C5.6,6,5.7,6,5.8,5.8c0,0,0,0,0,0
		c0,0,0,0,0,0c0.1,0,0.2,0,0.3-0.1c0.1,0,0.2,0,0.3,0C7,5.8,7.3,5.8,7.7,5.8c0.4,0,0.8,0,1.2,0c0.2,0,0.5,0,0.7,0s0.5,0,0.7,0
		c0.2,0,0.5,0,0.7,0c0.2,0,0.5,0,0.7,0.1c0.1,0,0.2,0,0.3,0.1s0.2,0.1,0.3,0.1c0,0,0.1,0,0.1,0c0.1,0,0.1,0,0.2,0c0,0,0.1,0,0.1,0
		C12.8,6.2,12.8,6.2,12.9,6.2z"/>
	<path class="st1" d="M19.7,14.1c0.1,0.1,0.1,0.2,0,0.2c-0.2,0.1-0.3,0-0.4-0.1c-0.1-0.1-0.2-0.1-0.2-0.1c0,0-0.1,0-0.2,0.1
		c-0.1,0.1-0.1,0.1-0.2,0.1c-0.1,0-0.2,0.1-0.2,0.1c-0.1,0-0.1,0-0.2,0.1c-0.1,0-0.1,0-0.1,0.1c-0.1,0.1-0.3,0.1-0.4,0.2
		c-0.1,0-0.3,0-0.4-0.1c-0.1,0-0.1-0.1-0.2,0h0h0h0c0,0,0,0,0,0s0,0,0,0c0,0,0,0,0,0c0,0,0,0,0,0c0,0-0.1,0.1-0.1,0.1h-0.1h-0.2
		h-0.1h0c0,0,0,0,0,0c-0.1,0-0.2,0-0.3,0c-0.1,0-0.2,0-0.3,0c-0.1,0-0.1,0-0.2,0c-0.1,0-0.1,0-0.2,0c-0.2,0-0.4,0-0.6,0
		c-0.2,0-0.4,0-0.6,0.1c0,0-0.1,0-0.1,0c0,0-0.1,0-0.1,0c-0.1,0-0.1,0-0.2,0s-0.1,0-0.1,0c0,0,0,0,0,0c-0.1,0-0.2-0.1-0.2-0.1
		c-0.4,0-0.7-0.2-0.9-0.7c0-0.1-0.1-0.2-0.1-0.3c0-0.1-0.1-0.2-0.1-0.3c0-0.1-0.1-0.2-0.1-0.3c0-0.2,0-0.3,0-0.5s0-0.3,0-0.5
		c0-0.1,0-0.1,0-0.2s0-0.1,0-0.2c0.1-0.3,0.2-0.5,0.2-0.8c0.1-0.3,0.2-0.5,0.2-0.8c0.1-0.3,0.2-0.6,0.2-1c0.1-0.3,0.1-0.6,0.2-1
		c0.1-0.3,0.1-0.6,0.3-0.9c0.1-0.3,0.3-0.6,0.6-0.8c0.1-0.1,0.1-0.1,0.2-0.2c0-0.1,0.1-0.1,0.1-0.2c0.1-0.1,0.1-0.1,0.2-0.2
		c0.1-0.1,0.1-0.1,0.2-0.1c0.1-0.1,0.2-0.1,0.3-0.1H15c0.1,0,0.2,0,0.3,0.1c0.1,0.1,0.2,0.2,0.2,0.3c0.1,0.1,0.1,0.3,0.1,0.4
		c0,0.1,0.1,0.3,0.1,0.4c0,0.1,0,0.2,0,0.3s0,0.2,0,0.3c0,0.8-0.1,1.5-0.1,2.2c0,0.7-0.1,1.5-0.2,2.2c0,0.1,0,0.1,0,0.2
		c0,0.1,0,0.1,0,0.2c0,0.1,0,0.2,0.1,0.2c0,0,0.1,0,0.2,0c0.2,0,0.3-0.1,0.5-0.1c0.2,0,0.3-0.1,0.5-0.1v0c0,0,0,0,0,0c0,0,0,0,0,0h0
		c0,0,0,0,0,0c0,0,0,0,0,0c0,0,0,0,0,0c0.1,0,0.3,0,0.4,0s0.3,0,0.4,0c0.2,0,0.3,0,0.5,0.1c0.2,0.1,0.5,0.1,0.7,0.1
		c0.1,0,0.2,0,0.2,0c0.1,0,0.2,0.1,0.2,0.1c0,0-0.1,0-0.1,0c0,0-0.1,0-0.1,0c-0.2,0-0.4,0-0.6,0c-0.2,0-0.4,0-0.6,0.1
		c-0.1,0-0.1,0-0.2,0c-0.1,0-0.1,0-0.2,0c-0.1,0-0.2,0.1-0.2,0.2c0,0.1,0,0.1,0,0.2c0,0,0.1,0.1,0.1,0.1c0.1,0,0.2,0,0.3,0
		c0.1,0,0.2,0,0.3,0c0,0,0.1,0,0.1,0c0,0,0.1,0,0.1-0.1c0.1-0.1,0.1-0.1,0.2-0.1c0,0,0.1,0,0.1,0.1c0,0,0,0,0,0c0,0,0,0,0.1,0.1
		c-0.1,0-0.1,0.1-0.2,0.1c-0.1,0-0.1,0.1-0.1,0.1c0,0,0,0.1,0,0.1c0,0,0,0,0.1,0c0.1,0,0.2,0,0.3,0c0.2,0,0.3,0,0.4,0.1
		c0,0,0.1,0.1,0.1,0.1C19.6,14,19.6,14.1,19.7,14.1z"/>
	<path class="st1" d="M22.2,6.2c0,0.1,0,0.1,0,0.2c0,0.1,0,0.1,0,0.2c0,0.3,0,0.6,0,0.8c0,0.3,0.1,0.6,0.1,0.8c0,0.2,0,0.4,0,0.6
		c0,0.2,0,0.4,0,0.6c0,0.3,0,0.5,0,0.8c0,0.4,0,0.8,0,1.2c0,0.4-0.1,0.8-0.2,1.2c0,0.1,0,0.1,0,0.2c0,0.1,0,0.1,0,0.2
		c0,0.2,0,0.3,0,0.5c0,0.1-0.1,0.3-0.1,0.4c0,0.2-0.1,0.3-0.3,0.3c-0.1,0.1-0.3,0.1-0.4,0.2c-0.1,0.1-0.2,0.1-0.3,0.2
		c-0.2,0.1-0.3,0.1-0.4-0.1c-0.2-0.3-0.3-0.5-0.4-0.8C20.1,13.6,20,13.3,20,13c0,0,0-0.1,0-0.1c0,0,0-0.1,0-0.1
		c0-0.4-0.1-0.8-0.1-1.1s0-0.7,0.1-1.1c0-0.2,0-0.3,0-0.5c0-0.2,0-0.3,0-0.5c0-0.4,0.1-0.7,0.1-1.1c0.1-0.4,0.2-0.7,0.2-1.1
		c0-0.2,0.1-0.3,0.2-0.5c0.1-0.1,0.1-0.3,0.2-0.4C20.8,6.3,21,6.1,21.1,6c0.2-0.1,0.3-0.2,0.5-0.3c0,0,0.1,0,0.1,0c0,0,0.1,0,0.1,0
		C22,5.9,22.1,6,22.2,6.2z"/>
	<path class="st1" d="M31.6,7.6c0,0,0.1,0,0.1,0c0,0,0.1,0,0.1,0c0,0.1,0,0.2-0.1,0.2c0,0.1-0.1,0.1-0.2,0.1c-0.1,0-0.2,0.1-0.3,0.2
		c-0.1,0.1-0.2,0.2-0.2,0.3c-0.1,0.1-0.2,0.2-0.3,0.3C30.6,8.9,30.5,9,30.3,9S30,9.2,29.8,9.2c-0.1,0-0.2,0.1-0.3,0.2
		s-0.1,0.2-0.2,0.3v0c0,0-0.1,0-0.1,0c0,0,0,0,0,0s0,0,0,0l0.1-0.1v0c0.1,0,0.1,0,0.2-0.1c0.1,0,0.1,0,0.2-0.1
		c-0.1,0.2-0.2,0.4-0.4,0.4c-0.3,0.1-0.5,0.2-0.7,0.3c-0.2,0.2-0.4,0.3-0.7,0.4c-0.1,0.1-0.2,0.1-0.3,0.2c-0.1,0.1-0.2,0.1-0.3,0.2
		c-0.1,0.1-0.2,0.1-0.2,0.2c-0.1,0.1-0.1,0.2-0.1,0.3c0,0.1-0.1,0.1-0.1,0.2c0,0.1-0.1,0.1-0.1,0.2c0,0,0,0-0.1,0.1
		c0,0,0,0.1-0.1,0.1c0,0,0,0.1,0,0.1s0,0.1,0,0.1c0,0.1,0,0.1,0.1,0.1c0,0,0.1,0,0.1,0c0.1,0,0.2,0,0.2,0c0.1,0,0.1,0,0.2,0
		c0.1,0,0.1,0,0.2,0c0,0,0,0.1,0.1,0.2c0,0,0.1,0,0.1,0s0.1,0,0.1,0l0,0h0c0,0.1,0.1,0.1,0.2,0.1c0,0,0.1,0,0.1,0c0,0,0-0.1,0.1-0.1
		c0-0.1,0-0.1,0.1-0.1s0.1,0,0.1,0.1c0,0.1,0.1,0.1,0.1,0.1s0.1,0,0.1-0.1c0.1-0.1,0.1-0.1,0.1-0.1s0.1,0,0.1,0.1c0,0,0.1,0,0.1,0
		c0.1,0,0.1,0,0.2,0c0.1,0,0.1,0,0.2,0c0,0,0.1,0,0.1-0.1c0,0,0.1,0,0.1-0.1c0,0.1,0,0.1,0.1,0.2c0,0,0.1,0,0.1,0.1
		c0.1,0,0.2,0.1,0.3,0.1c0.1,0,0.2,0.1,0.3,0.1c0,0-0.1,0-0.1,0c0,0-0.1,0-0.1,0c0.1,0.1,0.3,0.1,0.4,0c0,0,0.1-0.1,0.2-0.1
		c0,0,0,0,0.1,0c0,0,0.1,0,0.1,0c0,0,0,0,0-0.1c0,0,0,0,0-0.1c0.1,0,0.1,0,0.2,0c0,0,0.1,0,0.1-0.1c0-0.1,0.1-0.1,0.2-0.1
		c0.1,0,0.1,0.1,0.2,0.2c0.1,0.2,0.1,0.3,0.1,0.4c0,0,0,0.1,0,0.2c0,0.1,0,0.1-0.1,0.1c-0.1,0.1-0.1,0.2,0,0.2
		c-0.1,0.1-0.2,0.1-0.2,0.2c-0.1,0-0.1,0-0.2-0.1c0,0-0.1-0.1-0.1-0.1s-0.1,0-0.2,0.1c0,0.2,0.1,0.4,0.2,0.5c0,0.1-0.1,0.1-0.1,0.1
		s-0.1,0-0.1,0c-0.1,0-0.1,0-0.2,0c-0.1,0-0.1,0-0.1,0.1c0,0,0,0-0.1,0c0,0-0.1,0-0.1,0c-0.1,0-0.2,0-0.3,0s-0.2,0-0.3,0
		c-0.1,0-0.1,0-0.1,0c-0.2,0-0.3,0.1-0.5,0.1c-0.2,0-0.3,0.1-0.5,0.1c-0.1,0-0.2,0-0.3,0s-0.2,0-0.3,0c0,0,0,0,0,0c0,0,0,0,0,0
		c-0.2,0.1-0.3,0.1-0.4,0s-0.3-0.1-0.4-0.1c-0.5,0-0.9,0-1.4,0.1c-0.1,0-0.1,0-0.2,0c-0.1,0-0.1,0-0.2,0c0,0-0.1,0-0.1,0
		c0,0-0.1,0-0.1,0c-0.2,0-0.4,0-0.7,0s-0.4-0.1-0.6-0.2c-0.1-0.1-0.2-0.1-0.3-0.2c-0.1-0.1-0.2-0.2-0.3-0.2c0,0,0,0,0,0
		c0,0-0.1-0.1-0.2-0.1c-0.1,0-0.1-0.1-0.1-0.1c0-0.1,0-0.1,0-0.2c0-0.1,0-0.1-0.1-0.2c0,0,0,0,0-0.1c0,0,0-0.1,0-0.1
		c0-0.1,0-0.1,0-0.2c0-0.1,0-0.1,0-0.2c0,0,0,0,0,0c0,0,0,0,0,0c0,0,0.1-0.1,0.1-0.1c0,0,0.1-0.1,0.1-0.1c0.1-0.1,0.3-0.3,0.4-0.4
		c0.1-0.1,0.3-0.3,0.4-0.4c0.1-0.1,0.2-0.2,0.3-0.2c0.1-0.1,0.2-0.2,0.3-0.2c0.1-0.1,0.2-0.1,0.3-0.2c0.1-0.1,0.2-0.1,0.2-0.2
		c0-0.1,0.1-0.1,0.2-0.2s0.1-0.1,0.2-0.1c0.1,0,0.2-0.1,0.3-0.1c0.1-0.1,0.2-0.1,0.2-0.2c0,0,0.1-0.1,0.1-0.1
		c0.2-0.1,0.4-0.2,0.6-0.3c0.2-0.1,0.4-0.3,0.5-0.5c0.2-0.2,0.4-0.4,0.6-0.6c0.2-0.2,0.4-0.4,0.6-0.6c0,0,0,0,0-0.1
		c0,0,0-0.1,0.1-0.1c0,0,0,0-0.1,0c0,0,0,0-0.1,0c-0.2,0-0.5-0.1-0.7-0.1c-0.2,0-0.5-0.1-0.7-0.1c-0.1,0-0.2,0-0.3,0
		c-0.1,0-0.2,0-0.3,0.1c-0.2,0.1-0.5,0.1-0.8,0.1c-0.1,0-0.2,0-0.3,0s-0.2,0-0.3,0c-0.1,0-0.2,0-0.3-0.1c-0.1,0-0.1-0.1-0.1-0.2
		c0-0.1,0.1-0.2,0.1-0.2c0,0,0,0,0.1,0c0.1,0,0.1,0,0.1-0.1c0,0,0-0.1,0-0.2V6.8c0-0.1,0-0.2,0.1-0.3c0-0.1,0.1-0.1,0.2-0.1
		c0.1,0,0.2,0,0.3-0.1s0.2,0,0.3,0c0.1,0,0.3,0,0.4-0.1c0.1,0,0.3,0,0.4-0.1c0.3,0,0.7-0.1,1-0.2s0.7-0.2,1-0.2c0.1,0,0.1,0,0.2,0
		s0.1,0,0.2,0c0,0,0,0,0.1,0s0,0,0.1,0c0.1,0,0.1,0.1,0.2,0.1s0.1,0,0.2,0c0.2,0,0.3,0,0.5,0c0.2,0,0.3,0,0.5,0.1c0,0,0.1,0,0.2,0
		c0.1,0,0.1,0,0.1,0C31,6,31.1,6,31.2,6.1c0.1,0,0.1,0.1,0.2,0.1c0.1,0,0.1,0,0.2,0.1c0,0,0,0.1,0,0.1c0,0,0,0.1,0,0.1h0.2
		c0,0.1,0,0.2,0,0.3c0,0.1,0,0.2,0,0.3c0,0.1-0.1,0.2-0.1,0.3C31.7,7.4,31.7,7.5,31.6,7.6z M26.9,12.6c-0.1,0-0.1,0-0.2,0
		s-0.1,0-0.2,0.1c0.1,0,0.1,0,0.2,0C26.7,12.7,26.8,12.7,26.9,12.6z M27,12.7C27,12.7,27,12.7,27,12.7C27,12.8,27,12.8,27,12.7
		C27,12.8,27,12.8,27,12.7c0,0.1,0,0.1,0,0.1C27,12.8,27,12.8,27,12.7C27,12.8,27,12.7,27,12.7z M27.4,12.7
		C27.3,12.7,27.3,12.7,27.4,12.7C27.3,12.8,27.3,12.8,27.4,12.7L27.4,12.7C27.4,12.8,27.4,12.7,27.4,12.7z M27.7,12.5
		c0,0.1,0,0.1,0,0.1c0,0,0,0-0.1,0.1c0,0,0-0.1,0-0.1S27.7,12.5,27.7,12.5z M31.3,6.5C31.3,6.5,31.4,6.4,31.3,6.5
		C31.4,6.4,31.4,6.4,31.3,6.5c0.1-0.1,0.1-0.1,0-0.2c0,0,0,0,0,0c-0.1,0-0.2,0-0.3,0c0,0-0.1,0-0.1,0c0,0-0.1,0.1-0.1,0.1
		C31,6.4,31,6.4,31.1,6.5S31.2,6.5,31.3,6.5z M31.3,6.8L31.3,6.8C31.3,6.7,31.3,6.7,31.3,6.8C31.3,6.8,31.3,6.8,31.3,6.8
		C31.3,6.8,31.3,6.8,31.3,6.8L31.3,6.8C31.3,6.8,31.3,6.8,31.3,6.8z"/>
	<path class="st1" d="M37.8,14.1C37.8,14.1,37.8,14.1,37.8,14.1C37.7,14.1,37.7,14.1,37.8,14.1C37.7,14.1,37.7,14.2,37.8,14.1
		c-0.1,0.1-0.1,0.1,0,0.2c0,0,0,0.1,0.1,0.1c0.1,0.2,0.2,0.5,0.3,0.7l-0.2-0.1c0,0.1,0,0.1,0,0.1s0.1,0.1,0.1,0.1c0,0,0,0.1,0,0.1
		c0,0.1,0,0.1,0,0.2s0,0.1,0,0.2c0,0.1,0,0.2-0.1,0.2c-0.1,0.1-0.2,0.1-0.3,0c-0.1,0-0.1-0.1-0.2-0.1c-0.1-0.1-0.1-0.1-0.1-0.2
		c0,0,0-0.1-0.1-0.1s0-0.1-0.1-0.1c0-0.1-0.1-0.1-0.1-0.2c0-0.1-0.1-0.1-0.1-0.2c0,0,0-0.1-0.1-0.1c0,0,0-0.1-0.1-0.1c0,0,0,0,0,0
		c0,0,0,0-0.1,0c0,0,0,0,0,0.1c0,0,0,0,0,0c0,0,0,0,0,0c0,0.1,0.1,0.2,0.1,0.3c0,0.1,0.1,0.2,0.1,0.4c-0.1,0-0.1,0-0.1-0.1
		c0,0,0-0.1-0.1-0.1c-0.1-0.1-0.1-0.2-0.2-0.4c-0.1-0.1-0.1-0.2-0.2-0.4c-0.2-0.4-0.3-0.7-0.4-1.1S36,13,35.9,12.7c0,0,0-0.1,0-0.1
		c0,0,0-0.1,0-0.1c0-0.1-0.1-0.1-0.1-0.1c0,0-0.1,0-0.2,0s-0.2,0.1-0.3,0.1c-0.1,0-0.2,0.1-0.3,0.1c-0.1,0-0.1,0-0.2,0.1
		c-0.1,0-0.1,0-0.2,0.1c-0.3,0.1-0.4,0.3-0.5,0.5c-0.2,0.5-0.5,1-0.8,1.4c-0.1,0.1-0.1,0.1-0.2,0.2c-0.1,0.1-0.1,0.1-0.2,0.1
		c-0.1,0.1-0.2,0.1-0.3-0.1c0-0.1,0-0.2-0.1-0.3c0-0.1,0-0.2,0-0.3c0,0,0-0.1,0-0.1c-0.1-0.4-0.1-0.8-0.1-1.1
		c0.1-0.4,0.1-0.7,0.3-1.1c0.2-0.5,0.4-1.1,0.6-1.6c0.2-0.5,0.4-1,0.6-1.6c0.1-0.1,0.1-0.3,0.2-0.4c0-0.1,0.1-0.3,0.1-0.4
		c0.1-0.2,0.1-0.4,0.2-0.6c0.1-0.2,0.2-0.4,0.2-0.6c0,0,0,0,0,0c0.1-0.1,0.3-0.3,0.4-0.4C34.9,6.1,35,6,35.2,5.9
		c0.1-0.1,0.1,0,0.2,0c0,0.1,0,0.2,0,0.3c0,0.1,0,0.2,0,0.2c0,0.1,0.1,0.1,0.1,0.2c0,0,0,0,0.1,0.1c0,0,0.1,0,0.1,0
		c0.1,0,0.2,0,0.2,0.1C35.9,6.9,36,6.9,36,7c0.1,0.2,0.2,0.4,0.2,0.6c0.1,0.2,0.1,0.4,0.2,0.6c0,0.1,0.1,0.2,0.1,0.3
		c0,0.1,0,0.2,0.1,0.3c0.1,0.2,0.1,0.4,0.2,0.5S37,9.7,37,9.9c0.1,0.2,0.1,0.3,0.2,0.5c0.1,0.1,0.1,0.3,0.2,0.5
		c0,0.1,0.1,0.2,0.1,0.4s0.1,0.2,0.1,0.4c0,0,0,0,0,0.1c0,0,0,0,0,0.1c0,0.1,0,0.3,0,0.4c0,0.1,0,0.2,0,0.4c0,0,0,0.1,0,0.1
		s0,0.1,0,0.1c0,0,0,0.1,0,0.1s0,0.1,0,0.1c0,0.1,0,0.2,0,0.3c0,0.1,0.1,0.2,0.1,0.3l0.2,0.7c0,0.1,0,0.1,0.1,0.2s0,0.1,0.1,0.1
		c0,0,0,0.1,0.1,0.2c-0.2-0.1-0.4-0.3-0.5-0.5C37.9,14.2,37.8,14.2,37.8,14.1z M35.2,10.6c0.1,0,0.1-0.1,0-0.2c0-0.1,0-0.1-0.1-0.2
		s-0.1-0.1-0.1-0.1c-0.1,0-0.1,0.1-0.1,0.3c0,0,0,0,0,0.1c0,0,0,0.1,0.1,0.1C35.1,10.6,35.1,10.6,35.2,10.6
		C35.1,10.6,35.2,10.6,35.2,10.6z M36.6,14.4C36.6,14.4,36.6,14.4,36.6,14.4C36.6,14.4,36.6,14.4,36.6,14.4
		C36.6,14.4,36.6,14.4,36.6,14.4l0-0.2h0h0c0,0,0,0,0,0.1C36.5,14.3,36.6,14.4,36.6,14.4z"/>
	<path class="st1" d="M47.1,11.4c0.1,0.1,0.2,0.2,0.2,0.3c0.1,0.1,0.1,0.2,0.1,0.4c0,0.1,0,0.2-0.1,0.2c0,0.1-0.1,0.1-0.2,0.2
		c-0.1,0.1-0.2,0.1-0.3,0.2c-0.1,0.1-0.2,0.2-0.3,0.2c0,0,0,0,0,0c0,0,0,0,0,0c0,0.1,0,0.1,0,0.2c0,0-0.1,0.1-0.1,0.1
		s-0.1,0.1-0.1,0.1c0,0-0.1,0.1-0.1,0.1c0,0,0,0,0,0.1c0,0,0,0,0,0.1c0,0.1,0,0.1,0,0.1c0,0-0.1,0.1-0.1,0.1c-0.1,0-0.2,0.1-0.3,0.1
		c-0.1,0-0.1,0.1-0.2,0.1c-0.1,0-0.1,0-0.2,0c-0.1,0-0.2-0.1-0.2,0c-0.1,0-0.1,0-0.2,0c-0.2,0-0.3,0-0.5,0.1s-0.3,0-0.4,0h0
		C44,14,43.9,14,43.7,14s-0.3,0-0.4,0c0,0-0.1,0-0.1,0c-0.1,0.1-0.1,0.1-0.2,0.1s-0.2,0-0.2,0.1c-0.2,0.1-0.4,0.2-0.6,0.2
		c-0.1,0-0.1,0-0.2,0c-0.1,0-0.1,0.1-0.1,0.1c0,0.1-0.1,0.1-0.2,0.1c-0.1,0-0.1,0-0.2,0c-0.1,0-0.2,0-0.3,0.1
		c-0.1,0.1-0.2,0.1-0.3,0.1c-0.1,0-0.2-0.1-0.3-0.1c-0.1-0.1-0.2-0.2-0.3-0.3c-0.1-0.1-0.2-0.2-0.3-0.3c-0.2-0.2-0.2-0.3-0.2-0.5
		c0,0,0-0.1,0-0.1c0,0,0-0.1,0-0.1c0,0,0-0.1,0-0.1c0,0,0-0.1,0-0.1c0-0.1,0-0.1,0-0.2c0-0.1,0-0.1,0-0.2c0-0.1,0-0.2,0-0.3
		c0-0.1,0-0.2,0-0.3c0-0.5-0.1-0.9-0.2-1.4c-0.1-0.5-0.2-0.9-0.3-1.4C39.1,9.2,39,8.9,39,8.7c0-0.2-0.1-0.5-0.1-0.7
		c0-0.1-0.1-0.2-0.2-0.2c-0.1,0-0.3,0-0.4,0c-0.1,0-0.2,0-0.4,0c-0.1,0-0.1,0-0.2,0s-0.1-0.1-0.2-0.1c-0.1,0-0.1-0.1,0-0.2
		c0.1-0.1,0.2-0.2,0.3-0.2s0.2-0.2,0.3-0.3c0-0.1,0.1-0.1,0.2-0.1c0.1,0,0.1,0,0.2,0c0,0,0.1,0,0.1,0c0.2,0,0.3-0.1,0.3-0.3
		c0-0.2,0.1-0.4,0.3-0.4l0.4-0.2c0.1-0.1,0.2-0.1,0.3,0C39.9,6,40,6.1,40.1,6.2c0.1,0.1,0.2,0.2,0.3,0.3c0,0,0.1,0.1,0.1,0.1
		c0.1,0,0.2,0,0.3,0s0.2,0,0.3,0c0.1,0,0.3,0,0.4,0c0.1,0,0.3,0,0.4,0c0.1,0,0.3,0,0.4,0c0.1,0,0.3,0,0.4,0c0,0,0,0,0,0s0,0,0,0
		c0.2,0,0.4,0,0.5,0c0.2,0.1,0.3,0.1,0.5,0.2c0.1,0,0.2,0.1,0.3,0.1c0.1,0,0.2,0.1,0.3,0.2c0.2,0.1,0.4,0.2,0.6,0.3s0.4,0.3,0.5,0.4
		c0,0,0.1,0.1,0.1,0.1s0.1,0.1,0.1,0.1C46,8,46.1,8.2,46.1,8.3s0.1,0.3,0.1,0.4c0,0.2,0,0.3-0.2,0.3c-0.1,0-0.2,0.1-0.3,0.1
		c-0.1,0-0.2,0.1-0.2,0.1c0,0.1-0.1,0.1-0.2,0.2s-0.1,0.1-0.2,0.1c-0.1,0-0.1,0.1-0.2,0.1c-0.1,0-0.1,0.1-0.2,0.1
		c-0.1,0.1-0.1,0.1-0.1,0.2c0,0,0,0.1,0.1,0.1c0.1,0,0.2,0.1,0.3,0.1s0.2,0.1,0.3,0.1c0.1,0,0.1,0,0.2,0.1s0.1,0.1,0.1,0.2
		c0,0,0,0.1,0,0.1c0.1,0,0.1,0,0.2,0.1c0.1,0,0.1,0.1,0.1,0.1c0.1,0,0.2,0.1,0.2,0.1c0.1,0.1,0.1,0.1,0.2,0.2
		c0.1,0.1,0.1,0.1,0.2,0.1s0.1,0,0.2,0c0,0,0.1,0,0.1,0S47.1,11.3,47.1,11.4z M41.6,9.3c0.1,0,0.2,0,0.3-0.1c0.1,0,0.2,0,0.3,0
		c0,0,0,0,0,0c0,0,0,0,0,0c0.1,0,0.2,0,0.3,0s0.2,0,0.3,0c0.1,0,0.2-0.1,0.4-0.1c0.1,0,0.2-0.1,0.4-0.1c0.1,0,0.2-0.1,0.3-0.1
		c0.1,0,0.2-0.1,0.3-0.1c0.1,0,0.1,0,0.1-0.1s0.1-0.1,0-0.1c0,0,0-0.1,0-0.1c0,0-0.1-0.1-0.1-0.1c-0.3-0.2-0.7-0.3-1-0.3
		c0,0-0.1,0-0.1,0s-0.1,0-0.1,0c-0.2,0-0.3-0.1-0.4-0.1c-0.1,0-0.3-0.1-0.4-0.1c-0.1,0-0.2,0-0.4,0c-0.1,0-0.2,0-0.4,0
		C41,7.8,40.9,7.8,41,8c0,0.2,0.1,0.3,0.1,0.5c0,0.2,0.1,0.3,0.1,0.5c0,0.1,0.1,0.2,0.1,0.2C41.4,9.3,41.5,9.3,41.6,9.3z M45.4,12.1
		c0.1,0,0.1-0.1,0.1-0.2c0,0,0-0.1-0.1-0.1c0-0.1-0.1-0.1-0.1-0.1c-0.1-0.1-0.2-0.1-0.4-0.2c-0.1-0.1-0.2-0.1-0.4-0.1
		c-0.2,0-0.3,0-0.5-0.1c-0.2,0-0.3,0-0.5,0c0,0-0.1,0-0.1,0s-0.1,0-0.1,0c-0.2,0-0.4,0-0.6-0.1c-0.2,0-0.4,0-0.6-0.1v0H42
		c-0.2,0-0.2,0-0.3,0.1c0,0.1-0.1,0.1,0,0.3c0,0.1,0,0.1,0,0.2c0,0.2,0.1,0.4,0.1,0.5c0,0.2,0.1,0.4,0.1,0.5c0,0.1,0.1,0.2,0.1,0.3
		s0.1,0,0.3,0c0.1,0,0.3,0,0.4-0.1s0.3-0.1,0.4-0.1c0.1,0,0.3-0.1,0.4-0.1c0.1,0,0.3-0.1,0.4-0.1c0,0,0.1-0.1,0.1-0.1
		c0,0,0.1,0,0.2-0.1c0.2,0,0.4-0.1,0.6-0.2S45.2,12.2,45.4,12.1z"/>
	<path class="st1" d="M54.3,7c0,0.1,0,0.1-0.1,0.2s0,0.1-0.1,0.2c-0.1,0.2-0.1,0.5-0.1,0.7c0,0,0,0,0,0s0,0,0,0c-0.1,0-0.1,0-0.1,0
		c-0.1,0-0.2,0.1-0.3,0.2c-0.3,0-0.6-0.1-0.8-0.1c-0.3,0-0.5-0.1-0.8-0.1c-0.3,0-0.5-0.1-0.8-0.1C51,8,50.8,8,50.5,7.9
		c0,0-0.1,0-0.1,0s-0.1,0-0.1,0C50.1,8,50.1,8,50,8c0,0-0.1,0.1-0.1,0.2c0,0.1,0,0.2,0,0.3s0,0.2,0,0.3c0,0.2,0.1,0.3,0.1,0.3
		s0.2,0.1,0.4,0c0.2,0,0.4,0,0.5,0c0.2,0,0.4,0,0.5,0c0.2,0,0.3,0,0.5,0c0.2,0,0.3,0.1,0.4,0.2c0,0,0.1,0,0.1,0.1
		c0,0,0.1,0.1,0.1,0.1c0,0.2,0.1,0.3,0.2,0.3c0,0,0.1,0.1,0,0.1s0,0.1-0.1,0.1c0,0,0,0,0,0c0,0,0,0,0,0c-0.1,0-0.1,0.1-0.1,0.1
		c0,0,0,0.1,0,0.2c0.1,0.1,0.1,0.2,0.1,0.3c0,0-0.1,0.1-0.2,0.2c-0.1,0.1-0.1,0.1-0.2,0.2c-0.1,0.1-0.2,0.1-0.3,0l-0.1-0.1
		c0,0-0.1,0-0.1,0c0,0-0.1,0.1-0.1,0.1c0,0.1,0,0.1,0,0.1c0,0-0.1,0-0.1,0c-0.2,0-0.3,0-0.5,0.1s-0.3,0-0.5,0.1
		c-0.2,0-0.4,0.1-0.5,0.3c0,0,0,0.1-0.1,0.1s0,0.1,0,0.1c0,0,0,0,0.1,0.1c0,0,0.1,0,0.1,0c0.2,0,0.3,0.1,0.5,0.1c0.2,0,0.3,0,0.5,0
		c0.2,0,0.5,0.1,0.7,0.1s0.5,0,0.7,0.1c0.1,0,0.2,0.1,0.3,0.2c0.1,0.1,0.1,0.1,0.1,0.1s0,0.1-0.1,0.2c-0.1,0.1-0.1,0.2-0.1,0.3
		c0.1,0.1,0.1,0.2,0.1,0.3c0,0.1,0,0.2,0,0.3c0,0.1-0.1,0.2-0.1,0.3c-0.1,0.1-0.1,0.2-0.2,0.2c-0.2,0.2-0.4,0.3-0.7,0.3
		c-0.4,0-0.7,0-1.1,0.1c-0.3,0-0.7,0-1.1,0.1c0,0-0.1,0-0.1,0c0,0-0.1,0-0.1,0c-0.2,0.1-0.3,0.1-0.4,0c-0.1-0.1-0.3-0.1-0.5,0
		c-0.1,0.1-0.3,0.1-0.4,0.1s-0.3-0.1-0.4-0.1c-0.1-0.1-0.1-0.1-0.1-0.2c0-0.1,0-0.1,0-0.2c0-0.1,0-0.1,0-0.2
		c0.1-0.2,0.1-0.5,0.2-0.7c0-0.2,0-0.5,0-0.7c0-0.2,0-0.3,0-0.5c0-0.2,0-0.3,0-0.5c0-0.1,0-0.3,0-0.4s0-0.2,0-0.4c0-0.1,0-0.3,0-0.4
		c0-0.1,0-0.3,0-0.4c0-0.2,0-0.3,0-0.5c0-0.2,0-0.3,0-0.5c0-0.2,0-0.4,0-0.6c0-0.2,0-0.4,0-0.6c0-0.5,0.2-1,0.4-1.5
		c0.2-0.4,0.6-0.6,1-0.6c0.3,0,0.6,0,0.9,0s0.6,0,0.9,0c0,0,0.1,0,0.1,0s0.1,0,0.1,0c0.1,0,0.2,0,0.2,0c0.1,0,0.1,0.1,0.2,0.1
		c0.1,0,0.1,0.1,0.2,0.1C52,5.9,52.1,6,52.2,6c0.1,0,0.1,0,0.2,0c0,0,0.1-0.1,0.1-0.1c0.1-0.1,0.1-0.1,0.2-0.1c0.1,0,0.1,0,0.2,0.1
		c0,0,0.1,0.1,0.1,0.1C53,6,53.1,6,53.1,6c0,0,0.1,0,0.2,0c0,0,0.1,0,0.1,0c0,0,0.1,0,0.1,0c0,0,0.1,0.1,0.1,0.1
		c0.2,0.1,0.4,0.2,0.5,0.4S54.3,6.8,54.3,7z"/>
	<path class="st1" d="M62.7,7C62.7,7,62.6,7.1,62.7,7c-0.1,0.1-0.1,0.1-0.2,0.1c0,0-0.1,0-0.1,0c0,0-0.1,0-0.1,0
		c0,0.1,0.1,0.1,0.1,0.2s0.1,0.1,0.1,0.2c0,0-0.1,0.1-0.1,0.1c-0.1,0-0.1,0.1-0.2,0.2c-0.1,0-0.2,0-0.2,0c-0.1,0-0.2,0-0.2,0
		c-0.2,0-0.3,0-0.5,0.1c-0.1,0.1-0.2,0.1-0.2,0.1c-0.1,0-0.2,0-0.3,0c0,0,0,0-0.1,0c0,0-0.1,0-0.1,0c-0.2-0.1-0.5-0.2-0.8-0.1
		c-0.1,0-0.1,0-0.2,0c-0.1,0-0.2,0-0.2,0c0,0.1,0,0.2,0,0.4c0,0.1,0,0.2,0,0.3c0,0.3,0,0.6,0,0.8c0,0.3-0.1,0.6-0.1,0.8
		c0,0,0,0,0,0.1c-0.1,0.1-0.1,0.2-0.1,0.4c0,0.1,0,0.2,0,0.4c0,0.1,0,0.2,0,0.3c0,0.1,0,0.2,0,0.3c0,0.1,0,0.1,0,0.2
		c0,0.1,0,0.1,0,0.2c0,0.2,0,0.4,0.1,0.6c0,0.2,0.1,0.4,0.1,0.6c0,0.2,0,0.4,0,0.5c0,0.2,0,0.4,0,0.5c0,0.1-0.1,0.2-0.2,0.3
		l-0.1,0.1c-0.1,0.1-0.2,0.1-0.3,0.1c-0.1,0-0.2,0-0.3-0.1c0,0-0.1,0-0.1,0s-0.1,0-0.1,0c-0.2,0-0.4,0-0.6-0.1s-0.2-0.3-0.2-0.5
		c0-0.2,0-0.4,0-0.6c0-0.2,0-0.5,0-0.7s-0.1-0.5-0.1-0.7c0-0.2-0.1-0.4-0.1-0.7c0-0.2,0-0.4,0-0.6c0-0.2,0-0.3,0-0.4
		c0-0.1,0-0.3,0-0.4c0-0.3,0-0.5,0.1-0.8s0.1-0.5,0.1-0.8c0-0.1,0-0.2,0-0.3c0-0.1-0.1-0.1-0.3-0.2c-0.2,0-0.4,0-0.6-0.1
		c-0.2,0-0.4,0-0.6-0.1c-0.5-0.1-1-0.2-1.4-0.5c0,0,0,0-0.1-0.1c0,0,0,0,0-0.1c0.1-0.1,0.1-0.2,0.2-0.3c0-0.1,0.1-0.2,0.2-0.3
		c0,0,0-0.1,0-0.1s0-0.1,0-0.1c0,0,0-0.1,0.1-0.1c0,0,0.1,0,0.1,0s0.1,0,0.1,0c0,0,0.1,0,0.1-0.1c0,0,0.1,0,0.1,0.1
		c0.1,0,0.1,0.1,0.2,0.1c0,0,0-0.1,0-0.1c0,0,0,0,0-0.1h0.1c0.1,0,0.2,0,0.3,0.1c0.1,0,0.2,0,0.3,0c0.1,0,0.2,0,0.3,0
		c0.1,0,0.2,0,0.3,0c0,0,0.1,0,0.1,0s0.1,0,0.1,0c0.2,0,0.5,0,0.7,0c0.1,0,0.3,0,0.4-0.1c0.1,0,0.3,0,0.4-0.1c0.4,0,0.8-0.1,1.2,0
		s0.8,0.1,1.2,0.2c0.2,0,0.3,0.1,0.5,0.1c0.2,0,0.3,0,0.5,0c0.1,0,0.2,0.1,0.3,0.1c0.1,0.1,0.1,0.2,0.1,0.3c0,0.1,0,0.2,0,0.2
		s0.1,0.1,0.1,0.2C62.6,6.9,62.7,7,62.7,7z"/>
	<path class="st1" d="M70.1,11.7c0,0.1,0,0.1,0,0.2c0,0.1,0,0.1,0,0.2c0,0.1,0,0.1,0,0.2c0,0.1,0,0.1-0.1,0.2
		c-0.1,0.1-0.2,0.2-0.3,0.4c-0.1,0.1-0.2,0.2-0.3,0.3c-0.1,0.1-0.3,0.2-0.4,0.3c-0.1,0.1-0.3,0.2-0.5,0.2c-0.1,0-0.2,0.1-0.3,0.1
		s-0.2,0-0.3,0c-0.1,0-0.1-0.1-0.1-0.1c0-0.1-0.1-0.2-0.1-0.3c0-0.1-0.1-0.2-0.1-0.3c0-0.2-0.1-0.3-0.1-0.4c0-0.1-0.1-0.3-0.1-0.4
		c0-0.2-0.1-0.2-0.1-0.3s-0.2-0.1-0.3,0c-0.2,0-0.4,0-0.5,0.1c-0.2,0-0.4,0-0.5,0c-0.1,0-0.2,0-0.3,0s-0.2,0-0.3,0
		c-0.3,0-0.4,0.2-0.3,0.4c0,0.1,0.1,0.2,0,0.4c0,0.1,0,0.2,0,0.3c0,0.1,0,0.3,0,0.4c0,0.1,0,0.2,0,0.4c0,0.1,0,0.2-0.1,0.2
		s-0.1,0.1-0.2,0c-0.1,0-0.2,0-0.2,0c0,0-0.1,0.1-0.1,0.2c0,0.1-0.1,0.2-0.2,0.2c-0.2,0-0.4,0.1-0.5,0.2c-0.1,0.1-0.2,0.1-0.4,0
		c-0.2-0.2-0.3-0.4-0.4-0.6c-0.1-0.3-0.1-0.6-0.1-0.8c0-0.3,0-0.6,0-0.8c0-0.2,0-0.4,0-0.6c0-0.2,0-0.4,0-0.6c0-0.3,0-0.7,0-1
		s0-0.7,0-1c0-0.2,0-0.4,0-0.6c0-0.2,0-0.4,0.1-0.6c0-0.2,0-0.3,0-0.5c0-0.2,0-0.3,0-0.5c0-0.1,0-0.1,0-0.2c0-0.1,0-0.1,0.1-0.2
		c0.1-0.1,0.1-0.2,0.1-0.4c0,0,0-0.1,0-0.1c0,0,0-0.1,0-0.1c0,0,0,0,0-0.1c0,0,0,0,0-0.1c0,0,0.1,0,0.1,0c0.1,0,0.1,0.1,0.1,0.1
		c0.1,0.1,0.2,0.2,0.3,0.2c0.2,0,0.3,0,0.4,0.1c0.1,0.1,0.2,0.2,0.2,0.4c0,0,0,0.1,0,0.1c0,0,0,0.1,0,0.1c0,0.3,0.1,0.7,0.1,1
		s0.1,0.7,0.1,1c0,0.1,0,0.2,0,0.4s0,0.2,0,0.4c0,0.1,0,0.2,0.1,0.2c0,0,0.1,0.1,0.2,0.1c0.2,0,0.3,0.1,0.5,0.1
		c0.2,0,0.3,0.1,0.5,0.1c0.2,0,0.3,0.1,0.5,0s0.3,0,0.5,0c0,0,0.1,0,0.1,0c0,0,0.1,0,0.1,0c0.1,0,0.2,0,0.3,0c0.1,0,0.2,0,0.3-0.1
		c0.1,0,0.2-0.1,0.2-0.2c0-0.1,0-0.2,0.1-0.4s0-0.2,0.1-0.4c0-0.1,0-0.2,0-0.3c0-0.1,0-0.2,0-0.3c0-0.1,0-0.2,0.1-0.3
		c0.1-0.1,0.1-0.3,0.1-0.4c0-0.2,0-0.3,0-0.4c0-0.1,0.1-0.3,0.1-0.5c0.1-0.1,0.1-0.2,0.1-0.3s0-0.2,0-0.4c0,0,0-0.1,0-0.1
		c0,0,0-0.1,0.1-0.1c0,0,0,0,0.1-0.1c0,0,0,0,0.1-0.1c0.1-0.1,0.2-0.1,0.2-0.1s0.1,0,0.2,0.1c0.2,0.2,0.4,0.4,0.5,0.7
		c0.1,0.3,0.2,0.5,0.2,0.8s0,0.6,0.1,0.9c0,0.1,0,0.3,0,0.4c0,0.1,0,0.3,0,0.4c0,0.1,0,0.2,0,0.3c0,0.1,0,0.2,0,0.3
		c0,0.2,0,0.5,0,0.7s0,0.5,0,0.7c0,0.1,0,0.2,0,0.4C70.1,11.4,70.1,11.6,70.1,11.7z"/>
</g>
<g>
	<path class="st1" d="M16.4,28.9c0.1,0.1,0.2,0.2,0.2,0.4c0,0.1,0,0.2,0,0.4c0,0,0,0-0.1,0.1c0,0-0.1,0-0.1,0.1
		c-0.1,0-0.2,0.1-0.3,0.1c-0.1,0-0.2,0.1-0.2,0.2c0,0,0,0-0.1,0.1c0,0-0.1,0-0.1,0c-0.2,0-0.3,0-0.4,0c-0.1,0-0.3,0.1-0.4,0.3
		c-0.1,0.1-0.2,0.1-0.3,0.2c-0.1,0-0.3,0-0.4-0.1c-0.1-0.1-0.2-0.2-0.3-0.3s-0.2-0.2-0.2-0.4c-0.1-0.3-0.3-0.5-0.4-0.7
		c-0.2-0.2-0.4-0.4-0.6-0.5c-0.5-0.3-0.9-0.7-1.3-1.1c-0.4-0.4-0.7-0.9-1-1.4C10,25.3,9.5,24.6,8.9,24c0,0,0,0-0.1-0.1
		c0,0,0,0-0.1,0c-0.2-0.1-0.3-0.1-0.3,0.1c0,0.1,0,0.2,0,0.3c0,0.1,0,0.2,0,0.3c0,0.4,0,0.8,0.1,1.2s0,0.8,0,1.3
		c0,0.3-0.1,0.6-0.2,0.9c0,0.1-0.1,0.2-0.2,0.3c-0.1,0.1-0.2,0.2-0.2,0.3c-0.1,0.1-0.1,0.1-0.2,0.2c0,0.1-0.1,0.2,0,0.3
		c0,0.3,0,0.5-0.1,0.7c0,0,0,0.1-0.1,0.1c0,0-0.1,0.1-0.1,0.1c-0.1,0-0.3,0.1-0.4,0.2S7,30.4,6.9,30.5c0,0-0.1,0.1-0.1,0.1
		c-0.1,0-0.1,0-0.1,0c-0.2-0.1-0.4,0-0.6,0.1c-0.1,0.1-0.3,0.1-0.4,0c-0.2-0.1-0.3-0.3-0.4-0.4C5.1,30,5,29.8,5,29.6
		c-0.1-0.5-0.1-1,0-1.5s0.1-1,0.1-1.5c0-0.4,0-0.7,0-1.1c0-0.3,0-0.7,0-1.1c0-0.3,0-0.7,0-1c0-0.3,0-0.7,0-1c0-0.4,0-0.7-0.1-1.1
		c0-0.4,0-0.7-0.1-1.1c0-0.1,0-0.2,0-0.3c0-0.1,0-0.2,0-0.3c0-0.1,0.1-0.2,0.1-0.3s0.2-0.1,0.3-0.2c0.1,0,0.2-0.1,0.3-0.3
		c0.2-0.4,0.6-0.5,1-0.3C7,18.8,7.1,18.9,7.3,19c0.2,0.1,0.3,0.3,0.5,0.4c0.4,0.4,0.8,0.7,1.3,1.1c0.4,0.4,0.8,0.7,1.3,1.1
		c0.4,0.4,0.8,0.8,1.2,1.2c0.4,0.4,0.7,0.9,1,1.3c0.1,0.1,0.2,0.2,0.2,0.4c0.1,0.1,0.2,0.2,0.3,0.4c0,0,0,0,0.1,0c0,0,0,0,0,0
		c0-0.1,0-0.1,0-0.2c0,0,0-0.1,0-0.2c0-0.3,0-0.6-0.1-0.9c0-0.3,0-0.6-0.1-0.9c0-0.2,0-0.4,0-0.6c0-0.2,0-0.4,0-0.6
		c0-0.3-0.1-0.5-0.2-0.8c-0.1-0.3-0.2-0.5-0.5-0.7c0,0,0,0,0-0.1c-0.1-0.1-0.1-0.2-0.1-0.2c0-0.1,0.1-0.1,0.2-0.1
		c0.1,0,0.2,0,0.2-0.1c0-0.1,0-0.1,0-0.2c-0.1-0.3,0.1-0.5,0.4-0.6c0.1,0,0.2,0,0.2-0.1c0.1,0,0.1-0.1,0.2-0.2
		c0-0.1,0.1-0.2,0.2-0.2c0.1,0,0.2,0,0.3,0.1c0,0,0,0,0.1,0.1c0,0,0.1,0,0.1,0.1c0,0,0,0,0-0.1c0,0,0,0,0,0l0.1-0.2c0,0,0,0,0.1,0.1
		s0,0,0.1,0.1c0.1,0.1,0.1,0.2,0.1,0.3c0,0.1,0.1,0.2,0.1,0.3c0,0,0.1,0.1,0.1,0.1c0.1,0,0.1,0.1,0.1,0.1c0.1,0.1,0.1,0.1,0.2,0.2
		c0,0.2,0.1,0.4,0.2,0.5s0.2,0.3,0.3,0.4c0.1,0.1,0.2,0.3,0.2,0.5c0,0.1,0,0.2,0.1,0.3c0.1,0.1,0.1,0.2,0.1,0.3
		c0,0.1,0.1,0.2,0.1,0.3c0.1,0.1,0.1,0.2,0.1,0.3c0,0.2,0,0.4,0,0.6c0,0.2-0.1,0.4-0.3,0.6c-0.1,0.1-0.1,0.2-0.1,0.3s0,0.2,0,0.4
		c0.1,0.4,0.1,0.8,0.2,1.1c0,0.1,0.1,0.2,0.1,0.3c0.1,0.1,0.1,0.2,0.1,0.3c0.1,0.3,0.1,0.6,0,0.9c-0.1,0.2-0.1,0.3-0.1,0.5
		c0,0.2,0,0.3,0,0.5c0,0.2,0,0.4,0,0.6c0,0.2,0,0.4,0.1,0.6C16.2,28.5,16.3,28.7,16.4,28.9z"/>
	<path class="st1" d="M19.5,18.7c0,0.1,0,0.2,0.1,0.2c0,0.1,0,0.2,0,0.2c-0.1,0.4-0.1,0.8,0,1.2c0,0.4,0.1,0.8,0.1,1.2
		c0,0.3,0,0.6,0,0.8s0,0.6,0,0.9c0,0.4,0,0.7,0.1,1.1c0,0.6,0,1.2,0,1.8c-0.1,0.6-0.1,1.1-0.2,1.7c0,0.1,0,0.2-0.1,0.3
		c0,0.1,0,0.2,0,0.3c0,0.2,0,0.4-0.1,0.6c-0.1,0.2-0.1,0.4-0.2,0.6c-0.1,0.2-0.2,0.4-0.4,0.5c-0.2,0.1-0.4,0.2-0.5,0.3
		s-0.3,0.2-0.5,0.3c-0.2,0.2-0.4,0.1-0.5-0.1c-0.2-0.4-0.4-0.7-0.5-1.1c-0.2-0.4-0.2-0.8-0.3-1.2c0-0.1,0-0.1,0-0.2
		c0-0.1,0-0.1,0-0.2c-0.1-0.5-0.1-1.1-0.1-1.6c0-0.5,0-1,0.1-1.6c0-0.2,0.1-0.4,0.1-0.7c0-0.2,0-0.4,0-0.7c0-0.5,0.1-1,0.2-1.6
		c0.1-0.5,0.2-1,0.3-1.5c0.1-0.2,0.1-0.4,0.2-0.6c0.1-0.2,0.2-0.4,0.3-0.6c0.1-0.3,0.3-0.5,0.5-0.6s0.4-0.3,0.7-0.4
		c0.1,0,0.1,0,0.2,0c0.1,0,0.1,0,0.2,0.1C19.3,18.2,19.4,18.4,19.5,18.7z"/>
	<path class="st1" d="M28.5,21.8c0,0.1,0,0.2,0,0.4c0,0.1,0,0.2,0,0.4c0,0,0,0.1,0,0.1c0,0,0,0.1,0,0.1c0,0.3,0,0.5-0.1,0.8
		c-0.1,0.2-0.2,0.5-0.3,0.7c0,0.1-0.1,0.2-0.1,0.2c0,0.1-0.1,0.1-0.2,0.1c-0.1,0-0.2-0.1-0.2-0.1c0-0.1-0.1-0.2-0.1-0.2s0-0.2,0-0.2
		c0-0.3-0.1-0.6-0.1-0.8c-0.1-0.3-0.2-0.5-0.2-0.8c-0.1-0.3-0.3-0.6-0.5-0.9c-0.2-0.2-0.4-0.5-0.7-0.7c-0.1-0.1-0.2-0.1-0.3-0.2
		s-0.2-0.1-0.3-0.1c-0.1,0-0.2-0.1-0.3-0.1c-0.1,0-0.2-0.1-0.3-0.1c-0.2,0-0.4,0-0.5,0.2c-0.1,0.1-0.2,0.3-0.4,0.4s-0.2,0.3-0.4,0.4
		c-0.1,0.1-0.2,0.3-0.3,0.5c-0.1,0.2-0.1,0.3-0.2,0.5c0,0.1-0.1,0.3-0.1,0.4c-0.1,0.1-0.1,0.3-0.2,0.4c-0.2,0.6-0.3,1.2-0.3,1.8
		c0,0.3,0,0.5,0.1,0.8c0,0.3,0.1,0.5,0.1,0.8c0.1,0.2,0.1,0.5,0.2,0.7c0.1,0.2,0.2,0.5,0.2,0.7c0,0.1,0,0.1,0.1,0.2c0,0,0,0.1,0,0.2
		c0,0.2,0,0.3,0.1,0.5c0.1,0.1,0.1,0.2-0.1,0.3c0,0-0.1,0-0.1,0.1c0,0,0,0.1,0,0.1c0,0,0.1,0.1,0.1,0.1c0,0,0.1,0,0.1,0
		c0.1,0,0.3,0,0.4,0c0.2,0,0.3-0.1,0.4-0.1c0.2-0.2,0.5-0.3,0.7-0.5c0.2-0.1,0.5-0.3,0.7-0.5c0.1-0.1,0.2-0.1,0.2-0.2
		c0.1-0.1,0.1-0.2,0.2-0.2c0.1-0.1,0.3-0.3,0.4-0.4s0.3-0.3,0.4-0.4c0,0,0,0,0,0c0,0,0,0,0,0c0,0.1,0,0.2,0,0.3c0,0.1,0,0.2,0.1,0.3
		c0.1,0.3,0.1,0.5,0.1,0.8c0,0.1,0,0.3-0.1,0.4c-0.1,0.1-0.1,0.3-0.2,0.4c-0.1,0.1-0.1,0.3-0.2,0.4s-0.2,0.3-0.3,0.4
		c-0.1,0.2-0.3,0.3-0.4,0.4c-0.2,0.1-0.4,0.2-0.5,0.3c-0.4,0.1-0.7,0.2-1.1,0.2s-0.7-0.1-1.1-0.2c-0.3-0.1-0.5-0.1-0.8-0.2
		c-0.3-0.1-0.5-0.1-0.8-0.2c-0.2,0-0.4-0.1-0.6-0.2c-0.2-0.1-0.3-0.3-0.4-0.5c-0.3-0.6-0.5-1.2-0.6-1.7s-0.2-1.2-0.1-1.8
		c0-0.3,0-0.5,0.1-0.8c0-0.3,0-0.5,0.1-0.8c0-0.3,0.1-0.6,0.1-0.9c0-0.3,0.1-0.6,0.2-0.9c0.1-0.2,0.1-0.3,0.2-0.4
		c0.1-0.1,0.2-0.3,0.4-0.4c0.1,0,0.1-0.1,0.2-0.2s0.1-0.1,0.1-0.2c0.1-0.2,0.2-0.5,0.4-0.7s0.3-0.4,0.5-0.6c0.1-0.1,0.1-0.1,0.2-0.2
		c0.1-0.1,0.1-0.2,0.1-0.3c0.1-0.3,0.3-0.6,0.5-0.8s0.5-0.4,0.9-0.5c0.2,0,0.3-0.1,0.5-0.1c0.2,0,0.3-0.1,0.5-0.1c0.1,0,0.2,0,0.3,0
		c0.1,0,0.2,0,0.3,0.1c0.1,0,0.2,0,0.2,0c0.1,0,0.1-0.1,0.2-0.2c0-0.1,0.1-0.1,0.1-0.1c0.1,0,0.1,0,0.1,0.1c0.8,0.6,1.3,1.3,1.7,2.2
		c0.1,0.2,0.2,0.4,0.3,0.5c0.1,0.2,0.2,0.3,0.3,0.5c0.1,0.1,0.1,0.2,0.1,0.3C28.4,21.6,28.5,21.7,28.5,21.8z"/>
	<path class="st1" d="M38.8,26.3c0,0.1,0,0.2,0,0.3s0,0.2,0,0.3c0,0.1,0,0.2-0.1,0.3s0,0.2-0.1,0.3c-0.1,0.2-0.2,0.3-0.4,0.5
		c-0.1,0.2-0.3,0.3-0.4,0.4c-0.2,0.2-0.4,0.3-0.6,0.4c-0.2,0.1-0.4,0.3-0.7,0.3c-0.1,0.1-0.2,0.1-0.4,0.1c-0.1,0-0.2,0-0.4,0
		c-0.1,0-0.1-0.1-0.2-0.2c-0.1-0.1-0.1-0.3-0.2-0.4c-0.1-0.1-0.1-0.3-0.1-0.4c-0.1-0.2-0.1-0.4-0.1-0.6c0-0.2-0.1-0.4-0.1-0.6
		c0-0.2-0.1-0.4-0.2-0.4c-0.1-0.1-0.2-0.1-0.5-0.1c-0.3,0-0.5,0.1-0.8,0.1s-0.5,0-0.8,0.1c-0.1,0-0.3,0-0.4,0c-0.1,0-0.3,0-0.4,0
		c-0.4,0.1-0.5,0.3-0.4,0.6c0.1,0.2,0.1,0.3,0.1,0.5c0,0.2,0,0.3,0,0.5c0,0.2,0,0.4,0,0.5s0,0.4,0,0.5c0,0.2-0.1,0.3-0.1,0.3
		c-0.1,0.1-0.2,0.1-0.3,0.1c-0.1,0-0.2,0-0.3,0c0,0-0.1,0.1-0.1,0.3c0,0.2-0.1,0.3-0.3,0.3c-0.3,0-0.5,0.1-0.7,0.3
		c-0.1,0.2-0.3,0.2-0.5,0c-0.3-0.2-0.5-0.5-0.6-0.9c-0.1-0.4-0.1-0.8-0.2-1.2c0-0.4,0-0.8-0.1-1.2c0-0.3,0-0.5,0-0.8
		c0-0.3,0-0.5,0-0.8c0-0.5,0-1,0-1.4c0-0.5,0-1,0-1.4c0-0.3,0-0.5,0-0.8s0.1-0.5,0.1-0.8c0-0.2,0-0.5,0.1-0.7c0-0.2,0-0.5,0-0.7
		c0-0.1,0-0.2,0-0.3c0-0.1,0.1-0.2,0.1-0.2c0.2-0.2,0.2-0.3,0.1-0.6c0-0.1,0-0.1-0.1-0.2c0,0,0-0.1-0.1-0.2c0,0,0-0.1,0-0.1
		c0,0,0-0.1,0.1-0.1c0.1,0,0.1,0,0.2,0c0.1,0,0.1,0.1,0.2,0.1c0.1,0.2,0.3,0.2,0.5,0.2c0.2,0,0.4,0,0.6,0.2c0.1,0.1,0.2,0.3,0.3,0.5
		c0,0.1,0,0.1,0.1,0.2c0,0.1,0,0.1,0,0.2c0.1,0.5,0.1,0.9,0.2,1.4c0.1,0.5,0.1,0.9,0.2,1.4c0,0.2,0,0.3,0,0.5c0,0.2,0,0.3,0,0.5
		c0,0.2,0.1,0.3,0.1,0.3s0.2,0.1,0.3,0.1c0.2,0,0.4,0.1,0.7,0.1c0.2,0,0.4,0.1,0.7,0.1c0.2,0.1,0.4,0.1,0.6,0.1s0.4,0,0.6-0.1
		c0.1,0,0.1,0,0.2,0c0,0,0.1,0,0.1,0c0.1,0,0.3,0,0.4,0c0.1,0,0.3-0.1,0.4-0.1c0.2,0,0.3-0.1,0.3-0.3c0-0.2,0.1-0.3,0.1-0.5
		c0-0.2,0.1-0.3,0.1-0.5c0-0.1,0-0.3,0-0.4c0-0.1,0-0.3,0-0.4c0-0.1,0.1-0.3,0.1-0.4c0.1-0.2,0.1-0.4,0.1-0.6c0-0.2,0-0.4,0.1-0.6
		s0.1-0.4,0.1-0.6c0.1-0.1,0.2-0.3,0.2-0.5s0-0.3,0.1-0.5c0-0.1,0-0.1,0.1-0.2c0-0.1,0.1-0.1,0.1-0.2c0,0,0.1-0.1,0.1-0.1
		c0,0,0.1-0.1,0.1-0.1c0.1-0.1,0.2-0.2,0.3-0.2c0.1,0,0.2,0,0.3,0.1c0.3,0.2,0.6,0.5,0.7,0.9c0.2,0.4,0.3,0.8,0.3,1.1
		s0.1,0.8,0.1,1.2c0,0.2,0,0.4,0,0.6c0,0.2,0,0.4,0,0.6c0,0.1,0,0.2,0,0.4c0,0.1,0,0.2,0,0.4c0,0.3,0,0.7,0.1,1c0,0.3,0,0.7,0.1,1
		c0,0.2,0,0.3,0,0.5C38.8,26,38.8,26.2,38.8,26.3z"/>
	<path class="st1" d="M50.4,24.1c0,0.3,0.1,0.5,0.1,0.8c0,0.3,0.1,0.5,0.1,0.8c0,0.3,0,0.5,0,0.8s-0.1,0.5-0.3,0.7
		c-0.1,0.2-0.2,0.3-0.4,0.4c-0.1,0.1-0.3,0.3-0.4,0.4c-0.2,0.2-0.5,0.4-0.7,0.6c-0.4,0.3-0.7,0.7-0.9,1.1c0,0.1-0.1,0.1-0.2,0.2
		c-0.1,0.1-0.1,0.1-0.2,0.2c0,0-0.1,0.1-0.1,0.1s-0.1,0.1-0.1,0.1c-0.2,0.2-0.5,0.4-0.8,0.4c-0.3,0.1-0.6,0.1-0.9,0
		c-0.2,0-0.3-0.1-0.5-0.1c-0.2,0-0.3,0-0.5-0.1c-0.3,0-0.6-0.1-0.9-0.2c-0.3-0.1-0.6-0.2-0.8-0.4c-0.3-0.2-0.7-0.4-1-0.6
		c-0.3-0.2-0.6-0.5-0.9-0.8c-0.2-0.3-0.4-0.6-0.5-0.9c-0.2-0.3-0.3-0.6-0.5-0.9c-0.2-0.3-0.3-0.5-0.4-0.8c-0.1-0.3-0.1-0.5-0.1-0.8
		c0-0.3,0-0.6,0-0.9c0-0.3,0.1-0.5,0.2-0.8c0.1-0.4,0.2-0.9,0.4-1.3c0.1-0.4,0.3-0.9,0.5-1.3c0.2-0.4,0.4-0.7,0.6-1
		c0.2-0.3,0.5-0.6,0.7-1c0,0,0.1-0.1,0.1-0.1c0,0,0.1-0.1,0.1-0.1c0.2-0.2,0.4-0.3,0.7-0.4c0.1,0,0.2-0.1,0.3-0.1
		c0.1,0,0.2-0.1,0.3-0.1c0.1,0,0.3-0.1,0.4-0.1c0,0,0.1,0,0.1,0s0.1,0,0.1,0c0.2-0.1,0.3-0.1,0.4,0c0.1,0,0.2,0.1,0.3,0.3
		c0,0.1,0.1,0.1,0.1,0.2c0.1,0,0.1,0,0.2,0c0,0,0,0,0.1,0s0,0,0.1,0c0.1,0.1,0.2,0.2,0.4,0.3c0.1,0,0.3,0.1,0.4,0.1
		c0.1,0,0.1,0.1,0.2,0.1s0.1,0.1,0.2,0.1c0.1,0,0.2,0.1,0.3,0.1s0.2,0,0.3,0.1c0,0,0,0,0.1,0s0-0.1,0-0.1c0-0.1-0.1-0.1-0.1-0.2
		c0-0.1-0.1-0.1-0.2-0.2c0,0-0.1,0-0.1-0.1c0,0-0.1,0-0.1-0.1c0,0,0-0.1,0-0.1c0,0,0-0.1,0-0.1c0.1,0,0.2,0,0.2,0.1
		c0.2,0.1,0.3,0.2,0.5,0.3c0.2,0.1,0.3,0.2,0.5,0.3c0.3,0.1,0.5,0.2,0.7,0.5c0.2,0.2,0.3,0.4,0.5,0.7c0.3,0.4,0.6,0.9,0.9,1.3
		s0.5,1,0.6,1.5c0,0.2,0,0.3,0,0.5c0,0.1-0.1,0.3-0.2,0.4c0,0,0,0.1-0.1,0.1C50.4,24,50.4,24,50.4,24.1z M46.6,26.5
		c0.1-0.2,0.2-0.3,0.2-0.5c0.1-0.2,0.1-0.3,0.1-0.5c0-0.2-0.1-0.4-0.1-0.5c0-0.2-0.1-0.3-0.1-0.5c0-0.2-0.1-0.4-0.1-0.5
		c-0.1-0.2,0-0.4,0.1-0.6c0,0,0,0,0-0.1c0,0,0,0,0-0.1c0-0.1,0-0.3-0.1-0.5c-0.1-0.2-0.2-0.3-0.4-0.4c-0.1-0.1-0.2-0.1-0.2-0.2
		s-0.1-0.2-0.1-0.3c0-0.1,0-0.1-0.1-0.2c-0.2-0.1-0.4-0.2-0.6-0.3c-0.2,0-0.3,0-0.4,0c-0.1,0-0.2,0-0.3,0c-0.1,0-0.2-0.1-0.3-0.1
		c-0.1-0.1-0.2-0.1-0.3,0.1c-0.1,0.1-0.1,0.2-0.1,0.3c0,0.1-0.1,0.2-0.1,0.3c-0.2,0.4-0.3,0.8-0.4,1.2c-0.1,0.4-0.1,0.8-0.1,1.3
		c0,0.3,0.1,0.7,0.2,1s0.2,0.6,0.4,0.9c0.2,0.6,0.7,1,1.3,1.1c0.2,0,0.3,0.1,0.5,0.1s0.3-0.1,0.4-0.2c0,0,0,0,0.1,0c0,0,0.1,0,0.1,0
		c0.2,0,0.3,0,0.4,0c0.1-0.1,0.2-0.2,0.2-0.3c0-0.1,0-0.1,0.1-0.2C46.6,26.6,46.6,26.5,46.6,26.5z"/>
	<path class="st1" d="M61.4,29.8c0.1,0.1,0.1,0.2-0.1,0.3c-0.2,0.1-0.4,0-0.6-0.1c-0.1-0.1-0.2-0.1-0.3-0.1s-0.1,0.1-0.3,0.1
		c-0.1,0.1-0.2,0.1-0.3,0.2c-0.1,0-0.2,0.1-0.3,0.2c-0.1,0-0.2,0.1-0.2,0.1c-0.1,0-0.1,0.1-0.2,0.1c-0.2,0.1-0.4,0.2-0.6,0.2
		c-0.2,0-0.4,0-0.6-0.2c-0.1-0.1-0.2-0.1-0.3-0.1h0h0h0c0,0,0,0,0,0c0,0,0,0,0,0c0,0,0,0,0,0c0,0,0,0-0.1,0.1
		c-0.1,0.1-0.1,0.1-0.2,0.2h-0.1h-0.3h-0.2h0c0,0,0,0-0.1,0c-0.1,0-0.3,0-0.4,0s-0.3,0-0.4,0c-0.1,0-0.2,0-0.3,0c-0.1,0-0.2,0-0.3,0
		c-0.3,0-0.6,0-0.9,0s-0.6,0-0.9,0.1c-0.1,0-0.1,0-0.2,0s-0.1,0-0.1,0c-0.1,0-0.1,0-0.2,0c-0.1,0-0.1,0-0.2-0.1c0,0,0,0,0,0
		c-0.1,0-0.2-0.1-0.3-0.1c-0.6,0-1-0.3-1.2-0.9c-0.1-0.1-0.1-0.3-0.2-0.4c0-0.1-0.1-0.3-0.1-0.4c-0.1-0.1-0.1-0.3-0.1-0.4
		c0-0.2,0-0.5,0-0.7s0-0.5,0-0.7c0-0.1,0-0.2,0-0.3s0-0.2,0.1-0.3c0.1-0.4,0.2-0.7,0.3-1.1c0.1-0.4,0.2-0.7,0.3-1.1
		c0.1-0.4,0.2-0.9,0.3-1.3c0.1-0.4,0.2-0.9,0.2-1.3c0.1-0.5,0.2-0.9,0.4-1.3c0.2-0.4,0.4-0.8,0.8-1.1c0.1-0.1,0.2-0.2,0.2-0.3
		c0.1-0.1,0.1-0.2,0.2-0.3c0.1-0.1,0.2-0.2,0.2-0.3c0.1-0.1,0.2-0.2,0.2-0.2c0.1-0.1,0.3-0.2,0.5-0.2h0.1c0.2,0,0.3,0.1,0.4,0.2
		s0.2,0.2,0.3,0.4c0.1,0.2,0.1,0.4,0.2,0.6c0,0.2,0.1,0.4,0.1,0.6c0,0.2,0,0.3,0,0.5c0,0.2,0,0.3,0,0.5c-0.1,1.1-0.1,2.1-0.2,3.1
		c0,1-0.1,2.1-0.2,3.1c0,0.1,0,0.2,0,0.3s0,0.2,0,0.3c0,0.2,0,0.3,0.1,0.3c0.1,0.1,0.2,0.1,0.3,0c0.2,0,0.5-0.1,0.7-0.1
		s0.5-0.1,0.7-0.1v0c0,0,0,0,0,0c0,0,0,0,0,0h0.1c0,0,0.1,0,0.1,0c0,0,0,0,0.1,0c0,0,0,0,0.1,0c0.2,0,0.4,0,0.6,0c0.2,0,0.4,0,0.6,0
		c0.2,0,0.5,0,0.7,0.1c0.3,0.2,0.7,0.2,1,0.1c0.1-0.1,0.2-0.1,0.3,0s0.2,0.1,0.3,0.2c-0.1,0-0.1,0-0.2,0.1c0,0-0.1,0-0.1,0
		c-0.3,0-0.5,0-0.8,0c-0.3,0-0.5,0.1-0.8,0.1c-0.1,0-0.2,0-0.3,0s-0.2,0-0.3,0c-0.2,0-0.3,0.1-0.3,0.3c0,0.1,0,0.2,0,0.2
		c0,0,0.1,0.1,0.2,0.1c0.1,0,0.3,0,0.4,0.1c0.1,0,0.3,0,0.4,0.1c0.1,0,0.1,0,0.2,0c0.1,0,0.1-0.1,0.2-0.1c0.1-0.1,0.2-0.1,0.2-0.1
		c0,0,0.1,0.1,0.2,0.2c0,0,0,0,0.1,0.1c0,0,0.1,0.1,0.1,0.1c-0.1,0.1-0.2,0.1-0.2,0.1c-0.1,0-0.1,0.1-0.2,0.1c0,0-0.1,0.1-0.1,0.1
		s0,0.1,0.1,0.1c0.1,0,0.3,0,0.4,0c0.2-0.1,0.4,0,0.5,0.2c0.1,0.1,0.1,0.1,0.2,0.2S61.3,29.7,61.4,29.8z"/>
	<path class="st1" d="M70.3,27.7c0,0.1,0,0.2-0.1,0.2c-0.1,0.1-0.1,0.2-0.2,0.2c-0.1,0.1-0.1,0.1-0.2,0.2c-0.1,0.1-0.2,0.2-0.4,0.3
		v0c0.1,0.1,0.1,0.2,0.1,0.2c0,0-0.1,0.1-0.2,0.2c-0.1,0.1-0.2,0.2-0.3,0.2c-0.1,0.1-0.2,0.1-0.4,0.2c0,0-0.1,0-0.1,0
		c-0.1,0-0.3,0-0.4,0.1c-0.1,0.1-0.2,0.1-0.3,0.2c0,0-0.1,0.1-0.1,0.1c0,0-0.1,0.1-0.1,0.1c-0.1,0.1-0.2,0.1-0.2,0.2
		c0,0.1-0.1,0.2-0.1,0.2c-0.1,0.1-0.1,0.1-0.2,0.1c-0.4,0.1-0.9,0.2-1.4,0.1c-0.7-0.1-1.3-0.4-1.8-0.8c-0.2-0.1-0.4-0.3-0.6-0.4
		c-0.2-0.1-0.4-0.3-0.6-0.4c-0.7-0.6-1-1.3-1-2.2c0-0.2,0.1-0.4,0.3-0.6c0.1-0.1,0.1-0.2,0.2-0.2c0.1-0.1,0.1-0.2,0.1-0.3
		c0.1,0,0.1,0,0.2,0c0,0,0.1-0.1,0.1-0.1c0,0,0.1-0.1,0.1-0.1c0,0,0.1-0.1,0.1-0.1c0.1,0.1,0.2,0.2,0.3,0.3c0.1,0.1,0.2,0.2,0.3,0.3
		c0,0,0,0.1,0.1,0.1c0,0,0,0.1,0.1,0.1c0.2,0.5,0.5,0.8,0.9,1.1c0.4,0.3,0.8,0.5,1.3,0.6c0.1,0,0.2,0,0.3,0s0.2,0,0.3,0
		c0.1,0,0.2,0,0.2-0.1s0.1-0.1,0.1-0.2c0,0,0,0,0-0.1c0,0,0-0.1,0-0.1c0-0.1,0-0.2-0.1-0.3c0-0.1,0-0.2-0.1-0.3c0-0.1,0-0.1-0.1-0.2
		c0-0.1,0-0.1-0.1-0.2c-0.1-0.1-0.1-0.2-0.2-0.3c0-0.1-0.1-0.2-0.1-0.3c0.1,0.1,0.2,0.1,0.2,0.2c0.1,0.1,0.1,0.1,0.2,0.2
		c0,0,0,0,0,0c0,0,0,0,0,0c-0.1-0.1-0.1-0.2-0.2-0.3c-0.1-0.1-0.2-0.2-0.3-0.2c-0.1,0-0.2,0-0.2-0.1c0-0.1-0.1-0.1-0.1-0.2
		c0,0,0.1,0,0.1,0.1c0,0,0.1,0,0.1,0.1c-0.1-0.1-0.1-0.2-0.2-0.2c-0.1-0.1-0.1-0.1-0.2-0.2c0,0,0.1,0,0.2,0.1
		c-0.1-0.1-0.1-0.1-0.2-0.1c-0.1,0-0.2,0-0.2,0c0,0-0.1-0.1-0.1-0.2c0-0.1-0.1-0.2-0.1-0.2s-0.1-0.1-0.2-0.2
		c-0.1-0.1-0.2-0.2-0.2-0.3c0,0,0.1,0,0.2,0c0,0,0,0,0,0c0,0,0,0,0,0c-0.1-0.1-0.1-0.2-0.2-0.3c-0.1-0.1-0.1-0.2-0.2-0.3
		c-0.1-0.1-0.1-0.2-0.3-0.2c0,0,0,0-0.1,0c0,0,0,0-0.1-0.1c-0.1-0.1-0.2-0.2-0.2-0.2c-0.1-0.1-0.1-0.1-0.2-0.2
		c-0.1-0.1-0.2-0.1-0.2-0.2c-0.1-0.1-0.1-0.2-0.1-0.3c0-0.1,0-0.2-0.1-0.2c-0.2-0.1-0.4-0.2-0.5-0.4c-0.1,0-0.1-0.1-0.1-0.2
		c-0.1-0.1-0.1-0.3-0.2-0.4s-0.1-0.3-0.1-0.4c0-0.1,0-0.2,0-0.3c0-0.1,0-0.2,0.1-0.2c0.1,0,0.2-0.1,0.2-0.2c0.1-0.1,0.1-0.2,0.2-0.2
		c0.1-0.1,0.1-0.2,0.2-0.2c0.1-0.1,0.3-0.3,0.4-0.4c0.1-0.2,0.2-0.3,0.4-0.4c0.2-0.1,0.3-0.2,0.5-0.3c0.3-0.1,0.6-0.2,0.9-0.3
		s0.6-0.1,0.9-0.2c0.1,0,0.3,0,0.4,0s0.3,0,0.5,0c0.3,0,0.5,0.1,0.8,0.1c0.2,0.1,0.5,0.2,0.7,0.3c0.3,0.1,0.6,0.3,0.8,0.5
		c0.2,0.2,0.2,0.4,0.2,0.6c0,0.1,0,0.2,0,0.3s0.1,0.2,0.1,0.3c0.1,0.2,0.1,0.3,0.2,0.6c0,0.2,0,0.5-0.1,0.6
		c-0.1,0.2-0.2,0.3-0.5,0.4c0,0-0.1,0-0.1,0c-0.1,0-0.2,0-0.2,0c0,0-0.1,0.1-0.1,0.2c0,0,0,0,0,0.1c0,0,0,0,0,0c0,0,0,0-0.1,0
		c0,0,0,0-0.1,0c-0.1-0.1-0.2-0.1-0.3,0c-0.1,0-0.2,0-0.2,0c-0.1,0-0.2,0-0.2-0.1c0,0-0.1-0.1-0.1-0.1s-0.1,0-0.1-0.1
		c0,0-0.1,0-0.1-0.1s-0.1-0.1-0.1-0.1c0.1,0,0.1,0,0.1,0s0.1,0,0.1,0c0,0,0,0,0,0c-0.2-0.2-0.3-0.4-0.3-0.7c0-0.3-0.1-0.5-0.4-0.6
		c-0.1,0-0.2-0.1-0.3-0.1c-0.1,0-0.2-0.1-0.3,0c-0.2,0-0.4,0.1-0.5,0.2c-0.1,0.1-0.2,0.2-0.3,0.4c0,0,0,0.1-0.1,0.1
		c0,0,0,0.1-0.1,0.1c-0.1,0.1-0.1,0.2-0.1,0.2c0,0.1,0,0.1,0.1,0.2c0,0,0.1,0.1,0.1,0.1c0,0,0.1,0.1,0.1,0.1
		c0.1,0.1,0.1,0.1,0.2,0.2s0.1,0.1,0.2,0.2c0.3,0.4,0.8,0.8,1.3,1.1c0.5,0.3,1,0.7,1.3,1.1c0.1,0.2,0.3,0.4,0.4,0.5
		c0.2,0.2,0.3,0.3,0.4,0.5c0.1,0.1,0.2,0.2,0.2,0.4c0.1,0.1,0.1,0.3,0.2,0.4c0.2,0.4,0.3,0.7,0.5,1.1c0,0.1,0.1,0.2,0.1,0.3
		C70.3,27.5,70.3,27.6,70.3,27.7z"/>
</g>
</svg>
