<svg xmlns="http://www.w3.org/2000/svg" viewBox="0 0 80.6 81.8" enable-background="new 0 0 80.6 81.8"><style type="text/css">.st0{fill:none;} .st1{fill:#E90034;}</style><path class="st0" d="M0 0h80.6v81.8h-80.6z"/><path class="st1" d="M42.2 67.2v-4.1l2-.3c1.8-.2 2.7-1.1 1.5-2.9-2.3-3.5-5.2-8.4-7.6-11.8h-.2c.6-.7-6.5 9.8-7.4 11.2-1.7 1.8-.9 3.1.9 3.3l4 .6v4.1h-23.7v-4.1c5.7-.8 7.5-1.5 11-5.3 4-4.5 7.8-9.4 11.9-14.6-5.3-7.8-9.7-14.3-14-20.1-2-2.7-3.1-3.3-7.8-3.8v-4.4h28.2v4.2l-2.4.5c-1.2.2-1.2 1.1-.7 2.1 1.6 2.5 4.9 7.6 6.5 10h.2c-.5.7 5.9-8.4 6.5-9.3 1.5-1.8 1-2.8-.5-3.1l-3.2-.2v-4.2h21.2v4.2c-4.2 0-6.7 1.1-9.1 3.6-3.6 3.7-7.6 7.9-11.7 13.4 5 7.4 9.8 14.7 15.2 21.5 3.1 4.1 4.8 5.1 9.3 5.4v4.1h-30.1z"/></svg>