<svg xmlns="http://www.w3.org/2000/svg" viewBox="0 0 379.9 158" enable-background="new 0 0 379.9 158"><style type="text/css">.st0{fill:none;} .st1{enable-background:new ;} .st2{fill:#ED0241;}</style><path class="st0" d="M0 0h379.9v158h-379.9v-158z"/><g class="st1"><path d="M31.3 74.5v-44.1h25.7v8.2h-16v10.3h14.9v8.2h-14.9v9.3h16.9v8.2h-26.6zM65.9 74.5v-44.1h9.7v36h15.7v8.2h-25.4zM97.9 74.5v-44.1h9.7v44.2h-9.7zM128.9 66.4h19.8v8.2h-34.8l20.3-36h-18.1v-8.2h33.1l-20.3 36zM182.9 74.5l-3.4-11.1h-13.4l-3.4 11.1h-10.2l15.8-44.2h9.3l16 44.2h-10.7zm-9-30c-.4-1.4-.9-3.1-1-3.5-.1.2-.5 2-.9 3.5l-3.3 10.8h8.5l-3.3-10.8zM215.8 74.5h-16.8v-44.1h15.3c9.3 0 15.4 4.4 15.4 11.9 0 4.4-2.8 8-6.7 9.4 5.1.7 9 5.3 9 10.3 0 7.9-6.3 12.5-16.2 12.5zm-2.4-36h-4.7v10.2h4.7c4.5 0 6.8-1.8 6.8-5.4 0-3.6-2.5-4.8-6.8-4.8zm2.4 18.4h-7.1v9.4h7.1c4.5 0 6.2-1.8 6.2-4.9 0-3-2.2-4.5-6.2-4.5zM238.9 74.5v-44.1h25.7v8.2h-16v10.3h14.9v8.2h-14.9v9.3h16.9v8.2h-26.6zM289.6 38.5v36h-9.7v-36h-8.8v-8.2h27v8.2h-8.5zM329.8 74.5v-17.6h-15.4v17.7h-9.7v-44.2h9.7v18.3h15.4v-18.3h9.7v44.2h-9.7z"/></g><g class="st1"><path d="M148.6 129.7l-15.8-20.8c-.4-.6-.8-1.3-.9-1.4 0 0 .1.9.1 1.8v20.5h-7.8v-35.9h6.8l15.8 20.7c.5.6.8 1.3.9 1.5 0 0-.1-.9-.1-1.8v-20.4h7.8v35.8h-6.8zM162.7 129.7v-35.8h7.8v35.8h-7.8zM194.5 130.3c-10.9 0-18.3-7.2-18.3-18.7 0-10.7 8.1-18.3 18.2-18.3 5.2 0 9.2 1.5 12.9 5.3l-4.4 5.2c-2.4-2.4-5.2-3.6-8.5-3.6-6.1 0-10.1 4.9-10.1 11.4 0 7.4 3.6 11.8 10.2 11.8 4.5 0 6.7-1.9 9-4.1l4.5 5.2c-3.3 3.5-7.3 5.8-13.5 5.8zM233.5 129.7v-14.3h-12.5v14.3h-7.8v-35.8h7.8v14.9h12.5v-14.9h7.8v35.8h-7.8zM265.4 130.3c-11.1 0-18.4-8.4-18.4-18.6 0-10.3 7.4-18.3 18.5-18.3 11.2 0 18.4 7.7 18.4 18.3 0 10.3-7.4 18.6-18.5 18.6zm.1-30.2c-6.1 0-10.4 5.5-10.4 11.5 0 6.6 4.7 11.8 10.3 11.8 6.5 0 10.4-5.7 10.4-11.8 0-6.3-4-11.5-10.3-11.5zM289.6 129.7v-35.8h7.8v29.1h12.8v6.6h-20.6zM325.8 130.3c-5 0-8.6-1.8-12-4.5l4.1-5.5c2.1 1.7 5.2 3.1 8.1 3.1 3.6 0 4.6-1.2 4.6-3.4 0-3.6-6.5-4.8-9.5-6.5-3.6-2-6.4-4.2-6.4-9.9 0-7.4 6.4-10.4 12.8-10.4 3.4 0 7.5.9 10.4 3.1l-3.5 5.8c-1.6-1.2-4.2-2.1-6.8-2.1-3.6 0-4.9 2.1-4.9 3.5 0 3.2 4.6 4.2 8.7 6 3.5 1.5 7.2 4 7.2 9.9-.2 6.9-5 10.9-12.8 10.9z"/></g><path class="st2" d="M65.7 15.3h82.2v5.5h-82.2v-5.5z"/></svg>