<svg xmlns="http://www.w3.org/2000/svg" viewBox="0 0 410.3 158" enable-background="new 0 0 410.3 158"><style type="text/css">.st0{fill:none;}</style><path class="st0" d="M0 0h410.3v158h-410.3z"/><path d="M146.4 77.9c-16.9-1.7-14.5-20.7-22.9-20.7-2.9 0-4.4 2.1-4.4 4.1 0 5.1 10 6 10 15.4 0 5.6-4.2 9.7-9.1 9.7-6.3 0-10.6-5.9-10.6-14.6 0-8.8 9.5-20.5 24.9-20.5 13.1 0 22.2 8.6 30.5 8.6 6.2 0 5.6-8.6 10.7-8.6 1.7 0 2.9 1.2 2.9 2.3 0 4.1-3.8 3.8-11.8 10.9l-33 29.3c22 3.3 10.4 21.6 24.7 21.6 4.2 0 6.8-3 6.8-5.7 0-8.4-13.9-8.9-13.9-19.6 0-4.2 3-8.1 9.2-8.1 8.1 0 13.7 7.5 13.7 15.5 0 13-13 26.1-31.4 26.1-16.3 0-20.5-12.1-26.7-12.1-5.7 0-5 9.7-12.7 9.7-1.8 0-3.3-1.1-3.3-3.2 0-6 10.3-7.2 11.9-8.8l34.5-31.3zM25.7 70c0 4.7 2.2 8.9 8.8 8.9 6.3 0 8.1-3.6 9.6-3.6.3 0 .6.3.6.7 0 .4-.2 1.4-3 4.3-3.5 3.5-8.1 5.7-15 5.7-9.3 0-14.5-6.2-14.5-13.6 0-13.5 11.1-21.8 21.9-21.8 8.1 0 13 3.2 13 8.3.1 6.2-7.7 11.1-21.4 11.1zm1.1-1.8c7 0 10.2-8.2 10.2-12.7 0-2.1-.9-3.1-2.4-3.1-3.9 0-8.9 8.5-8.9 15.8h1.1zM65.9 81c1.5 0 2.7-2.5 3.8-5.2.9-2.2 1.1-2.9 1.6-2.9.6 0 .8.4.8.9-.1.5-2.5 12.2-11.6 12.2-4.4 0-8.5-3-8.5-8.5 0-5.8 8.4-36.5 8.4-39.5s-3.6-2-3.6-3.6c0-2.2 5.3.3 18.4-4-9.8 42.3-10.7 46.5-10.7 48.3 0 1.5.5 2.3 1.4 2.3zM92.8 79.4c0 1.1.4 1.7 1.1 1.7 1.3 0 2.6-2 3.6-4 1.1-2.2 1.3-3.2 2-3.2.4 0 .7.4.7.8 0 1.1-3.2 11.4-11.4 11.4-5.5 0-8.5-3.2-8.5-8.4s4.6-17.9 4.6-20.3c0-1.1-.4-1.7-1.1-1.7-1.3 0-2.6 2-3.6 4-1.1 2.2-1.3 3.2-2 3.2-.4 0-.7-.4-.7-.8 0-1.1 3.2-11.4 11.4-11.4 5.5 0 8.5 3.4 8.5 8.5 0 4.4-4.6 16.8-4.6 20.2zm10.7-43c0 4.5-4.1 8-8.1 8-4.1 0-7-2.9-7-6.5 0-4.5 4.1-8 8.1-8 4.1.1 7 2.9 7 6.5zM204.3 78c-1.6 2.7-4.4 8.5-11.5 8.5-6.7 0-11.6-5-11.6-12.5 0-11.9 11.3-22.9 21.3-22.9 3.5 0 6.3 1.4 7 5.7 3.6-3.9 11-5.7 13.3-5.7.7 0 1.1.2 1.1.6 0 1-1.5 1.2-2.1 3.9-4.4 21-4.7 22.5-4.7 24.1 0 1 .5 1.8 1.4 1.8 1.7 0 3-2.9 4-5.6.8-2 .9-2.4 1.4-2.4.5 0 .8.4.8.8 0 .6-2.3 12.1-11.5 12.1-6.8 0-7.8-5.3-8.6-8.5h-.3zm3.4-19.9c0-2.8-1.4-5.2-3.4-5.2-2.2 0-3.8 2.6-5.6 7.5-2.7 7.6-4.1 14.7-4.1 19.1 0 1.9.8 3.5 2.5 3.5 4.9 0 10.6-15.4 10.6-24.9zM245.1 59.5l.2.2c2-4.7 6.3-8.5 11.4-8.5 7.2 0 12.1 5.4 12.1 13 0 8.9-9.3 22.4-22.4 22.4-9.2 0-16.3-5.7-16.3-15.3 0-6 7.2-30.1 7.2-32.7 0-3-3.6-2-3.6-3.6 0-2.2 5.3.3 18.4-4l-7 28.5zm7.4 14.7c1.9-5.4 2.9-12.1 2.9-14.6 0-3.1-.7-5.2-2.9-5.2-4.7 0-10.8 14.5-10.8 25.1 0 3.7 1.4 5.2 3.8 5.2 3 0 4.4-3 7-10.5zM285.8 70.5c0 4.7 2.2 8.9 8.8 8.9 6.3 0 8.1-3.6 9.6-3.6.3 0 .6.3.6.7s-.2 1.4-3 4.3c-3.5 3.5-8.1 5.7-15 5.7-9.3 0-14.5-6.2-14.5-13.6 0-13.5 11.1-21.8 21.9-21.8 8.1 0 13 3.2 13 8.3.2 6.2-7.7 11.1-21.4 11.1zm1.2-1.8c7 0 10.2-8.2 10.2-12.7 0-2.1-.9-3.1-2.4-3.1-3.9 0-8.9 8.5-8.9 15.8h1.1zM337.4 56.2h-7.2l-4.4 18.9c-.4 1.5-.8 3.6-.8 4.7 0 2 1.3 2.9 2.6 2.9 3.2 0 5.3-3.5 6.6-6.4 1.1-2.6 1.4-3.9 2.1-3.9.5 0 .8.4.8.9 0 1-2.8 13.2-13.1 13.2-6.6 0-11.5-3.8-11.5-9.8 0-3.2 1-6.9 1.9-10.4l2.6-10.1h-6c10.3-5.3 14.1-8.4 22.7-16.6l-2.6 12.5h8.6l-2.3 4.1zM359 60l.2.2c1.2-2.5 4.7-9 11.5-9 5.9 0 10.2 3.5 10.2 9.5 0 3.6-4.2 16.3-4.2 19.3 0 1.1.4 1.7 1.1 1.7 1.3 0 2.6-2 3.6-4 1.1-2.2 1.3-3.2 2-3.2.4 0 .7.4.7.8 0 1.1-3.2 11.4-11.4 11.4-5.5 0-8.5-3.4-8.5-8.5 0-5 4.2-17.7 4.2-20.6 0-1.7-.9-2.5-2.1-2.5-2.3 0-6 4.9-8.1 11.4-2.3 7.3-3.6 13.3-4.9 20.2-1.4-1.1-3.4-2.1-6.4-2.1-2.5 0-4.2.8-6.4 2.1 8.4-38.1 10.4-43.2 10.4-48.1 0-2.9-3.3-2.3-3.3-3.8 0-.8 1.5-1 3-1.1 5-.2 10.6-1.5 15-3.2l-6.6 29.5zM199.6 117.2l.1-11.9c0-3.5-1.1-5.1-3.3-5.5-.5-.1-.8-.1-.8-.5 0-.2.1-.4.4-.4.3 0 .8.1 4.1.1 3.4 0 3.8-.1 4.1-.1.3 0 .4.1.4.4 0 .3-.2.4-.8.5-2.2.3-3.3 2-3.3 5.5v17.6c0 .4 0 .5-.3.5-.2 0-.4-.4-.8-1.1l-13.4-18.7h-.1v12.9c0 3.5 1.1 5.1 3.3 5.5.5.1.8.1.8.5 0 .2-.1.4-.4.4-.3 0-.8-.1-4.1-.1-3.4 0-3.8.1-4.1.1-.3 0-.4-.1-.4-.4 0-.3.2-.4.8-.5 2.2-.3 3.3-2 3.3-5.5v-14l-1.2-1.5c-1.2-1.5-2.7-.9-2.7-1.5 0-.3.1-.5.9-.5.7 0 2.1.1 3.4.1h1.3l12.8 18.1zM219.3 119.7c0 3 3.1 1.6 3.1 2.7 0 .2-.1.4-.5.4-.8 0-1.7-.1-4.3-.1s-3.5.1-4.3.1c-.3 0-.5-.2-.5-.4 0-1.1 3.1.4 3.1-2.7v-17.7c0-3-3.1-1.6-3.1-2.7 0-.2.1-.4.5-.4.8 0 1.7.1 4.3.1s3.5-.1 4.3-.1c.3 0 .5.2.5.4 0 1.1-3.1-.4-3.1 2.7v17.7zM252.6 107.9c0 .4-.2.6-.4.6-.4 0-.5-.5-.6-1.5-.7-4-3.6-7.7-8-7.7s-7.7 4.1-7.7 11.6c0 8.9 4.2 11.6 7.5 11.6 4.8 0 7.8-3.4 8.5-7.8.1-.6.2-.8.4-.8s.4.2.4.6v8.3c0 .4-.2.6-.5.6-.7 0-.4-1.6-1.8-1.6-1.3 0-2.9 1.6-7.3 1.6-6.5 0-11-5.7-11-12.4 0-7 6.2-12.4 11.4-12.4 3.9 0 5.9 1.9 7.2 1.9 1.3 0 .6-1.8 1.5-1.8.2 0 .4.2.4.6v8.6zM269.2 110.5v9.2c0 3 3.1 1.6 3.1 2.7 0 .2-.1.4-.5.4-.8 0-1.7-.1-4.3-.1s-3.5.1-4.3.1c-.3 0-.5-.2-.5-.4 0-1.1 3.1.4 3.1-2.7v-17.7c0-3-3.1-1.6-3.1-2.7 0-.2.1-.4.5-.4.8 0 1.7.1 4.3.1s3.5-.1 4.3-.1c.3 0 .5.2.5.4 0 1.1-3.1-.4-3.1 2.7v7.8h10.2v-7.8c0-3-3.1-1.6-3.1-2.7 0-.2.1-.4.5-.4.8 0 1.7.1 4.3.1 2.6 0 3.5-.1 4.3-.1.3 0 .5.2.5.4 0 1.1-3.1-.4-3.1 2.7v17.7c0 3 3.1 1.6 3.1 2.7 0 .2-.1.4-.5.4-.8 0-1.7-.1-4.3-.1-2.6 0-3.5.1-4.3.1-.3 0-.5-.2-.5-.4 0-1.1 3.1.4 3.1-2.7v-9.2h-10.2zM295.1 110.9c0-7.7 6.4-12.4 12-12.4s12 4.7 12 12.4-6.4 12.4-12 12.4-12-4.7-12-12.4zm12 11.6c4 0 8.2-2.7 8.2-11.6s-4.2-11.6-8.2-11.6-8.2 2.7-8.2 11.6 4.2 11.6 8.2 11.6zM335 119.7c0 1.6.6 2.2 2.7 2.2 4.1 0 7.5-2.9 9-6.3.7-1.7.6-2.2 1-2.2.2 0 .3.1.3.3 0 .2-.1.9-.3 1.5l-1.8 7.5c-3.9 0-7.9-.1-12.5-.1-2.6 0-3.5.1-4.3.1-.3 0-.5-.2-.5-.4 0-1.1 3.1.4 3.1-2.7v-17.6c0-3-3.1-1.6-3.1-2.7 0-.2.1-.4.5-.4.8 0 1.7.1 4.3.1s3.5-.1 4.3-.1c.3 0 .5.2.5.4 0 1.1-3.1-.4-3.1 2.7v17.7zM357.6 113.4c0-.6 0-.9.5-.9.6 0 .5.7.9 2.7 1.2 5.8 4.1 7.4 6.7 7.4 3.2 0 5.5-1.8 5.5-4.9 0-8.2-13.4-4.2-13.4-13.1 0-3.5 3.4-6 6.9-6 3.2 0 5.2 1.3 5.8 1.3 1.1 0 .6-1.2 1.3-1.2.3 0 .5.2.5.6.6 7 .6 7.4.6 7.7 0 .3 0 .6-.4.6s-.4-.2-.9-1.7c-1.4-4.6-3.6-6.8-6.9-6.8-2.3 0-4.1 1.8-4.1 4 0 6.6 13.4 4.1 13.4 12.8 0 5.3-5.1 7.4-8.3 7.4-3.3 0-5.5-1.5-6.2-1.5-1 0-.7 1.3-1.6 1.3-.2 0-.5-.3-.5-.8v-8.9z"/></svg>