<?xml version="1.0" encoding="utf-8"?>
<!-- Generator: Adobe Illustrator 19.1.0, SVG Export Plug-In . SVG Version: 6.00 Build 0)  -->
<svg version="1.1" id="Layer_1" xmlns="http://www.w3.org/2000/svg" xmlns:xlink="http://www.w3.org/1999/xlink" x="0px" y="0px"
	 viewBox="0 0 873 285" style="enable-background:new 0 0 873 285;" xml:space="preserve">
<style type="text/css">
	.st0{fill:none;}
</style>
<rect class="st0" width="873" height="285"/>
<path d="M118.9,204.4c-9.6-3.7-116.5-49.6-16.9-117.1c0,0,54-34.2,88-26c2,0.5,3.2,2.5,2.6,4.4c-3.1,10.7-18.8,48.1-64.6,71.4
	c0,0-11.7,54.3,79.3,55.5c0,0-9.9-86.2,94.7-112c0,0,1.9,14.1,20.7,4.3c0,0,10.3,51.6,49.3,88.5c1.4,1.3,3.6,1,4.6-0.5
	c7.3-11.2,36.1-50.6,90.8-67.6c0,0,18.7,2.7,41.3,36c0,0,14.8,22.7,80-9.1c0,0,41.8-19.5,132,19.1c0,0,56,28,105.3,7.3
	c0,0-58.6,50.1-206.7,9.3c0,0-41.9-11.5-73.9,0.5c0,0-74.9,37.5-88.6-18.6c-1.7-6.9-9.7-10-15.6-6c-8.4,5.7-15.9,19.2-27.9,34.1
	c0,0-39.3,58-87.3,28c0,0-6.2-18.2-28.8,5.8c0,0-27.2,26.5-82.5,1.8c0,0-29.3,9.4-94.3-8.7C119.9,204.7,119.4,204.6,118.9,204.4z"/>
</svg>
