<svg xmlns="http://www.w3.org/2000/svg" width="1.87in" height=".63in" viewBox="0 0 134.84 45.56"><title>logo-colour-1</title><path d="M16.08 10.62a6.52 6.52 0 0 0 5.34-3.27c.54-1.11.57-1.41.87-1.41s.27.12.27.36-.39 1.59-2 9.24c-.18.84-.27 1-.54 1s-.36-.15-.36-.42.06-.57.06-1.11c0-1.83-1-3.33-3.78-3.72-1.54 6.98-1.84 7.71-1.84 8.71s.54 1.38 1.86 1.38a10.39 10.39 0 0 0 6.93-3.09c2.61-2.69 2.64-4.29 3.24-4.29a.31.31 0 0 1 .33.33c0 .48-.48 1.32-3.27 7.8-2.79 0-8.25-.06-12.48-.06-2.28 0-4 .06-4.68.06q-.72 0-.72-.36c0-.93 2.22.27 2.7-2 3.06-14.55 3.63-16 3.63-16.59 0-1.18-1.74-.24-1.74-1.11 0-.33.15-.39.93-.39 1.8 0 4.71.06 7.95.06l7.68-.06c.18 2.52.45 5.52.45 6.84 0 .27-.12.45-.39.45-.57 0 0-1.53-1.77-3.78-1.5-2-3.48-2.73-6.84-2.79zM31.75 20.34c.6 0 1.08-1 1.53-2.07.36-.87.42-1.14.63-1.14s.3.15.3.36-1 4.83-4.59 4.83a3.26 3.26 0 0 1-3.39-3.39c0-2.31 3.36-14.55 3.36-15.72s-1.44-.81-1.44-1.44c0-.87 2.1.12 7.32-1.59-3.9 16.82-4.26 18.51-4.26 19.23s.18.93.54.93zM40.59 19.68c0 .45.15.66.45.66.51 0 1.05-.81 1.44-1.59s.51-1.26.78-1.26a.3.3 0 0 1 .27.3c0 .42-1.29 4.53-4.53 4.53a3.09 3.09 0 0 1-3.39-3.32c0-2.07 1.83-7.14 1.83-8.1 0-.45-.15-.66-.45-.66-.51 0-1 .81-1.44 1.59s-.55 1.17-.78 1.17a.3.3 0 0 1-.27-.3c0-.42 1.29-4.53 4.53-4.53a3.12 3.12 0 0 1 3.39 3.39c0 1.82-1.83 6.77-1.83 8.12zm4.23-17.1a3.31 3.31 0 0 1-3.21 3.18 2.62 2.62 0 0 1-2.79-2.58 3.31 3.31 0 0 1 3.24-3.18 2.61 2.61 0 0 1 2.76 2.58zM52.35 13.53c-3.35-.33-2.88-4.11-4.56-4.11a.82.82 0 0 0-.87.81c0 1 2 1.2 2 3.06a1.85 1.85 0 0 1-1.8 1.92c-1.28 0-2.12-1.21-2.12-2.91s1.89-4.08 4.95-4.08c2.61 0 4.41 1.71 6.06 1.71 1.23 0 1.11-1.71 2.13-1.71a.54.54 0 0 1 .57.45c0 .81-.75.75-2.34 2.16l-6.57 5.82c4.38.66 2.07 4.29 4.92 4.29a1.26 1.26 0 0 0 1.35-1.14c0-1.68-2.76-1.77-2.76-3.9a1.64 1.64 0 0 1 1.83-1.62 2.92 2.92 0 0 1 2.73 3.09c0 2.58-2.58 5.19-6.24 5.19-3.24 0-4.08-2.4-5.31-2.4s-1 1.92-2.52 1.92a.61.61 0 0 1-.66-.63c0-1.2 2-1.44 2.37-1.74zM68.67 18.93c-.67 1.07-1.77 3.39-4.59 3.39s-4.62-2-4.62-5c0-4.74 4.5-9.12 8.49-9.12a2.51 2.51 0 0 1 2.79 2.28 9.1 9.1 0 0 1 5.26-2.26c.27 0 .45.09.45.24 0 .39-.6.48-.84 1.56-1.74 8.37-1.89 9-1.89 9.6 0 .39.18.72.57.72.69 0 1.2-1.17 1.59-2.22.3-.81.36-1 .54-1a.31.31 0 0 1 .3.33c0 .24-.9 4.83-4.59 4.83-2.7 0-3.09-2.13-3.42-3.39zm1.33-7.93c0-1.11-.54-2.07-1.35-2.07s-1.53 1-2.25 3a25.14 25.14 0 0 0-1.62 7.59c0 .75.3 1.41 1 1.41 1.96.01 4.22-6.14 4.22-9.93zM82 11.55l.06.06a5.16 5.16 0 0 1 4.53-3.39c2.88 0 4.83 2.16 4.83 5.16 0 3.54-3.72 8.94-8.91 8.94-3.66 0-6.51-2.32-6.51-6.09 0-2.37 2.85-12 2.85-13 0-1.2-1.44-.81-1.44-1.44 0-.87 2.1.12 7.32-1.59zm2.94 5.88a22.2 22.2 0 0 0 1.14-5.82c0-1.23-.27-2.07-1.14-2.07-1.86 0-4.29 5.76-4.29 10 0 1.47.57 2.07 1.5 2.07 1.2-.01 1.77-1.21 2.79-4.18zM96.93 16c0 1.86.87 3.54 3.51 3.54s3.21-1.44 3.84-1.44a.26.26 0 0 1 .24.27c0 .15-.09.57-1.2 1.71a7.8 7.8 0 0 1-6 2.28c-3.69 0-5.76-2.46-5.76-5.43a8.64 8.64 0 0 1 8.73-8.67c3.21 0 5.19 1.26 5.19 3.3.02 2.44-3.1 4.44-8.55 4.44zm.45-.72c2.79 0 4-3.27 4-5.07 0-.84-.36-1.23-1-1.23-1.56 0-3.54 3.39-3.54 6.3zM117.17 10.26h-2.88l-1.77 7.53a10 10 0 0 0-.33 1.89 1 1 0 0 0 1 1.14c1.29 0 2.13-1.38 2.64-2.55.45-1 .54-1.56.84-1.56s.3.15.3.36c0 .39-1.11 5.25-5.22 5.25-2.64 0-4.59-1.5-4.59-3.9a18.06 18.06 0 0 1 .75-4.14l1-4h-2.4a31.1 31.1 0 0 0 9-6.6l-1 5h3.49zM124.88 11.76l.06.06c.48-1 1.89-3.6 4.59-3.6 2.34 0 4 1.38 4 3.78 0 1.44-1.68 6.51-1.68 7.68 0 .45.15.66.45.66.51 0 1.05-.81 1.44-1.59s.51-1.26.78-1.26a.3.3 0 0 1 .27.3c0 .42-1.29 4.53-4.53 4.53a3.12 3.12 0 0 1-3.39-3.39c0-2 1.68-7 1.68-8.22 0-.66-.36-1-.84-1-.93 0-2.37 1.95-3.21 4.56a62.36 62.36 0 0 0-2 8 3.85 3.85 0 0 0-2.55-.84 4.7 4.7 0 0 0-2.55.84c3.33-15.18 4.14-17.22 4.14-19.14 0-1.17-1.32-.93-1.32-1.5 0-.33.6-.39 1.2-.42a20.53 20.53 0 0 0 6-1.26zM19.5 36.56c.63-2.91 1.68-6.93 1.68-8.58 0-3.06-2.88-2-2.88-2.88 0-.27.21-.42.63-.42.93 0 2.28.06 3.42.06 1.35 0 2.67-.06 3.27-.06s.78.06.78.45c0 1-3.36-.39-4.44 4.56l-3.33 15.42c-.09.36-.12.45-.27.45s-.18-.06-.45-.48l-10.08-16.08c-1.77 8.61-2.49 11.19-2.49 12.66 0 3.34 2.66 2.34 2.66 3.06 0 .3-.18.42-.57.42-1.56 0-2.52-.06-3.45-.06s-1.89.06-3.39.06c-.42 0-.6-.06-.6-.33 0-.81 2.49.3 3.84-2.76.42-1 .66-1.65 3.33-14l-1.16-1.72c-.72-1.05-1.74-.72-1.74-1.2 0-.27.12-.45.78-.45 1.62 0 2.46.06 7.08.06zM29 42.68c0 .45.15.66.45.66.51 0 1.05-.81 1.44-1.59s.51-1.26.78-1.26a.3.3 0 0 1 .27.3c0 .42-1.29 4.53-4.53 4.53a3.09 3.09 0 0 1-3.41-3.32c0-2.07 1.83-7.14 1.83-8.1 0-.45-.15-.66-.45-.66-.51 0-1 .81-1.44 1.59s-.52 1.17-.79 1.17a.3.3 0 0 1-.27-.3c0-.42 1.29-4.53 4.53-4.53a3.12 3.12 0 0 1 3.39 3.39c0 1.82-1.8 6.77-1.8 8.12zM33.2 26.47a3.31 3.31 0 0 1-3.2 3.18 2.62 2.62 0 0 1-2.79-2.58 3.31 3.31 0 0 1 3.24-3.18 2.61 2.61 0 0 1 2.75 2.58zM41.54 31.22c3.48 0 5.28 2.1 5.28 4.26a2.66 2.66 0 0 1-2.61 2.91 2.15 2.15 0 0 1-2.13-2.19c0-1.44 1.08-2 1.08-3.27a1 1 0 0 0-1.17-1c-2.13 0-3.63 3.87-3.63 6.6 0 2.55 1 4.56 3.72 4.56 2.22 0 3.24-1.92 3.6-1.92a.36.36 0 0 1 .36.36c0 .33-2.34 3.78-7.08 3.78a5.66 5.66 0 0 1-5.96-5.81 8.41 8.41 0 0 1 8.54-8.28zM54 34.76l.06.06c.48-1 1.89-3.6 4.59-3.6 2.34 0 4 1.38 4 3.78 0 1.44-1.68 6.51-1.68 7.68 0 .45.15.66.45.66.51 0 1.05-.81 1.44-1.59s.51-1.26.78-1.26a.3.3 0 0 1 .27.3c0 .42-1.29 4.53-4.53 4.53a3.12 3.12 0 0 1-3.39-3.39c0-2 1.68-7 1.68-8.22 0-.66-.36-1-.84-1-.93 0-2.37 1.95-3.21 4.56a62.36 62.36 0 0 0-2 8 3.85 3.85 0 0 0-2.55-.84 4.7 4.7 0 0 0-2.55.84c3.48-15.13 4.29-17.17 4.29-19.09 0-1.17-1.32-.93-1.32-1.5 0-.33.6-.39 1.2-.42a20.53 20.53 0 0 0 6-1.26zM69.9 45.32c-3.27 0-6.75-2.46-6.75-6 0-5 3.9-8.1 8.49-8.1 3.27 0 6.72 2.46 6.72 6 0 5.01-3.87 8.1-8.46 8.1zm-.12-11a30.38 30.38 0 0 0-1.65 8.4c0 1.32.45 1.86 1.44 1.86s1.53-.6 2.16-2.43a30.38 30.38 0 0 0 1.65-8.4c0-1.29-.45-1.83-1.44-1.83s-1.53.62-2.16 2.42zM84.69 43.34c.6 0 1.08-1 1.53-2.07.36-.87.42-1.14.63-1.14s.3.15.3.36-1 4.83-4.59 4.83a3.26 3.26 0 0 1-3.39-3.39c0-2.31 3.36-14.55 3.36-15.72s-1.44-.81-1.44-1.44c0-.87 2.1.12 7.32-1.59-3.9 16.82-4.26 18.51-4.26 19.23s.18.93.54.93zM89.76 39.65a2.66 2.66 0 0 1 2.4 2.58c.15 1.92.6 2.37 1.92 2.37s2.52-.66 2.52-2c0-2.22-6.3-2.28-6.36-6.6 0-2.37 2.46-4.74 6.36-4.74 2.73 0 5.25 1.08 5.25 3.21a1.82 1.82 0 0 1-1.89 1.8c-1.08 0-1.77-.84-1.77-2.43 0-1.35-.21-1.86-1.83-1.86-1.44 0-2.34.63-2.34 1.68 0 2.1 6.9 2.64 6.9 6.66 0 2.82-2.85 5-7.26 5-3.84 0-5.76-1.83-5.76-3.63a1.88 1.88 0 0 1 1.86-2.04z"/></svg>